<svg xmlns="http://www.w3.org/2000/svg" width="97" height="95" viewBox="0 0 97 95" fill="none"><path fill-rule="evenodd" clip-rule="evenodd" d="M48.6705 33.2445L38.2944 22.8685H44.3744V10.7461H48.6705H52.9666V22.8685H59.0482L48.6722 33.2445H48.6705ZM63.6932 33.4453C57.8141 33.4453 53.0466 35.7414 53.0466 38.5754C53.0466 41.4094 57.8124 43.7056 63.6932 43.7056C69.5723 43.7056 74.3398 41.4077 74.3398 38.5754C74.3398 35.7414 69.574 33.4453 63.6932 33.4453ZM33.6494 33.4453C27.7704 33.4453 23.0028 35.7414 23.0028 38.5754C23.0028 41.4094 27.7687 43.7056 33.6494 43.7056C39.5302 43.7056 44.2961 41.4077 44.2961 38.5754C44.2961 35.7414 39.5302 33.4453 33.6494 33.4453ZM23.0028 55.9437C23.0028 58.7777 27.7687 61.0738 33.6494 61.0738C39.5302 61.0738 44.2961 58.776 44.2961 55.9437V52.5939C43.8552 52.8901 43.3684 53.1676 42.8425 53.4212C40.4646 54.5667 37.2136 55.2748 33.6511 55.2748C30.0886 55.2748 26.8376 54.5667 24.4598 53.4212C23.9338 53.1676 23.447 52.8901 23.0045 52.5939V55.9437H23.0028ZM44.2944 49.0059V43.3328C43.6799 43.8111 43.0008 44.2179 42.3063 44.5515C39.6919 45.8128 36.5311 46.3132 33.6477 46.3132C30.7644 46.3132 27.6036 45.8128 24.9891 44.5515C24.2964 44.2179 23.6172 43.8111 23.0011 43.3328V49.0059C23.4181 49.7617 24.3304 50.4782 25.5849 51.0825C27.6223 52.0646 30.4716 52.6722 33.6477 52.6722C36.8238 52.6722 39.6714 52.0646 41.7106 51.0825C42.965 50.4765 43.8773 49.7617 44.2944 49.0059ZM53.0466 55.9437C53.0466 58.7777 57.8124 61.0738 63.6932 61.0738C69.5723 61.0738 74.3398 58.776 74.3398 55.9437V52.5939C73.8973 52.8901 73.4105 53.1676 72.8845 53.4212C70.5084 54.5667 67.2557 55.2748 63.6932 55.2748C60.1307 55.2748 56.878 54.5667 54.5019 53.4212C53.9759 53.1676 53.4908 52.8901 53.0483 52.5939V55.9437H53.0466ZM74.3381 49.0059V43.3328C73.7237 43.8111 73.0428 44.2179 72.3501 44.5515C69.7357 45.8128 66.5749 46.3132 63.6915 46.3132C60.8081 46.3132 57.6473 45.8128 55.0329 44.5515C54.3402 44.2179 53.661 43.8111 53.0449 43.3328V49.0059C53.4602 49.7617 54.3742 50.4782 55.6286 51.0825C57.6661 52.0646 60.5154 52.6722 63.6915 52.6722C66.8676 52.6722 69.7152 52.0646 71.7544 51.0825C73.0088 50.4782 73.9211 49.7617 74.3381 49.0059Z" fill="white"></path><path d="M30.6768 77.156C30.2048 77.156 29.7528 77.082 29.3208 76.934C28.8888 76.782 28.5108 76.566 28.1868 76.286C27.8628 76.002 27.6288 75.664 27.4848 75.272L29.1768 74.648C29.2168 74.764 29.3048 74.876 29.4408 74.984C29.5808 75.092 29.7568 75.182 29.9688 75.254C30.1808 75.322 30.4168 75.356 30.6768 75.356C30.9168 75.356 31.1428 75.322 31.3548 75.254C31.5668 75.182 31.7388 75.084 31.8708 74.96C32.0028 74.836 32.0688 74.692 32.0688 74.528C32.0688 74.36 31.9988 74.222 31.8588 74.114C31.7228 74.002 31.5468 73.914 31.3308 73.85C31.1188 73.782 30.9008 73.732 30.6768 73.7C30.0688 73.612 29.5228 73.468 29.0388 73.268C28.5588 73.064 28.1788 72.784 27.8988 72.428C27.6228 72.072 27.4848 71.62 27.4848 71.072C27.4848 70.548 27.6328 70.09 27.9288 69.698C28.2248 69.302 28.6148 68.994 29.0988 68.774C29.5868 68.554 30.1128 68.444 30.6768 68.444C31.1488 68.444 31.6008 68.52 32.0328 68.672C32.4688 68.82 32.8488 69.036 33.1728 69.32C33.4968 69.604 33.7288 69.944 33.8688 70.34L32.1768 70.952C32.1368 70.836 32.0468 70.726 31.9068 70.622C31.7708 70.514 31.5968 70.426 31.3848 70.358C31.1728 70.29 30.9368 70.256 30.6768 70.256C30.4448 70.252 30.2228 70.286 30.0108 70.358C29.7988 70.43 29.6248 70.528 29.4888 70.652C29.3528 70.776 29.2848 70.916 29.2848 71.072C29.2848 71.288 29.3488 71.45 29.4768 71.558C29.6048 71.662 29.7728 71.736 29.9808 71.78C30.1928 71.824 30.4248 71.864 30.6768 71.9C31.2528 71.984 31.7828 72.134 32.2668 72.35C32.7508 72.566 33.1388 72.854 33.4308 73.214C33.7228 73.574 33.8688 74.012 33.8688 74.528C33.8688 75.052 33.7208 75.512 33.4248 75.908C33.1328 76.3 32.7448 76.606 32.2608 76.826C31.7768 77.046 31.2488 77.156 30.6768 77.156ZM35.1868 77V68.6H40.5388V70.4H36.9868V71.6H39.7228V73.4H36.9868V75.2H40.5388V77H35.1868ZM41.8548 77V68.6H43.6548V75.2H46.9548V77H41.8548ZM48.2766 77V68.6H53.6286V70.4H50.0766V71.6H52.8126V73.4H50.0766V75.2H53.6286V77H48.2766ZM58.8326 77.156C58.2646 77.156 57.7306 77.044 57.2306 76.82C56.7306 76.592 56.2906 76.278 55.9106 75.878C55.5346 75.478 55.2386 75.016 55.0226 74.492C54.8106 73.964 54.7046 73.4 54.7046 72.8C54.7046 72.196 54.8106 71.632 55.0226 71.108C55.2386 70.58 55.5346 70.118 55.9106 69.722C56.2906 69.322 56.7306 69.01 57.2306 68.786C57.7306 68.558 58.2646 68.444 58.8326 68.444C59.5126 68.444 60.1386 68.602 60.7106 68.918C61.2826 69.23 61.7566 69.648 62.1326 70.172L60.5246 71.036C60.3166 70.796 60.0666 70.604 59.7746 70.46C59.4826 70.316 59.1686 70.244 58.8326 70.244C58.5126 70.244 58.2106 70.31 57.9266 70.442C57.6466 70.574 57.3986 70.758 57.1826 70.994C56.9706 71.226 56.8046 71.496 56.6846 71.804C56.5646 72.112 56.5046 72.444 56.5046 72.8C56.5046 73.152 56.5646 73.482 56.6846 73.79C56.8046 74.098 56.9706 74.37 57.1826 74.606C57.3986 74.838 57.6466 75.022 57.9266 75.158C58.2106 75.29 58.5126 75.356 58.8326 75.356C59.1686 75.356 59.4826 75.284 59.7746 75.14C60.0666 74.992 60.3166 74.796 60.5246 74.552L62.1326 75.428C61.7566 75.948 61.2826 76.366 60.7106 76.682C60.1386 76.998 59.5126 77.156 58.8326 77.156ZM69.6366 68.6V70.4H67.2366V77H65.4366V70.4H63.0366V68.6H69.6366ZM36.5136 80.6V82.4H34.1136V89H32.3136V82.4H29.9136V80.6H36.5136ZM37.7122 89V80.6H41.1322C41.5922 80.6 42.0082 80.716 42.3802 80.948C42.7522 81.18 43.0462 81.492 43.2622 81.884C43.4822 82.272 43.5922 82.7 43.5922 83.168C43.5922 83.528 43.5322 83.864 43.4122 84.176C43.2922 84.484 43.1202 84.758 42.8962 84.998C42.6762 85.234 42.4162 85.424 42.1162 85.568L44.1082 89H42.0322L40.1362 85.736H39.5122V89H37.7122ZM39.5122 83.936H40.9162C41.0762 83.936 41.2222 83.896 41.3542 83.816C41.4862 83.732 41.5922 83.622 41.6722 83.486C41.7522 83.35 41.7922 83.2 41.7922 83.036C41.7922 82.872 41.7522 82.722 41.6722 82.586C41.5922 82.45 41.4862 82.342 41.3542 82.262C41.2222 82.178 41.0762 82.136 40.9162 82.136H39.5122V83.936ZM47.6921 80.6H49.7201L52.7681 89H50.8601L50.3801 87.68H47.0321L46.5521 89H44.6441L47.6921 80.6ZM47.6921 85.88H49.7201L48.7001 83.096L47.6921 85.88ZM53.7317 89V80.6H56.5157C57.0957 80.6 57.6377 80.71 58.1417 80.93C58.6497 81.146 59.0957 81.448 59.4797 81.836C59.8677 82.22 60.1697 82.666 60.3857 83.174C60.6057 83.678 60.7157 84.22 60.7157 84.8C60.7157 85.38 60.6057 85.924 60.3857 86.432C60.1697 86.936 59.8677 87.382 59.4797 87.77C59.0957 88.154 58.6497 88.456 58.1417 88.676C57.6377 88.892 57.0957 89 56.5157 89H53.7317ZM55.5317 87.2H56.5157C56.8397 87.2 57.1457 87.138 57.4337 87.014C57.7217 86.89 57.9777 86.718 58.2017 86.498C58.4257 86.278 58.5997 86.024 58.7237 85.736C58.8517 85.444 58.9157 85.132 58.9157 84.8C58.9157 84.468 58.8517 84.158 58.7237 83.87C58.5997 83.582 58.4257 83.328 58.2017 83.108C57.9817 82.884 57.7277 82.71 57.4397 82.586C57.1517 82.462 56.8437 82.4 56.5157 82.4H55.5317V87.2ZM61.6184 89V80.6H66.9704V82.4H63.4184V83.6H66.1544V85.4H63.4184V87.2H66.9704V89H61.6184Z" fill="white"></path></svg>