<svg xmlns="http://www.w3.org/2000/svg" width="50" height="50" viewBox="0 0 50 50" fill="none"><path d="M39.3 8H17.1C15.0565 8 13.4 9.68961 13.4 11.7738V17.4346C13.4 18.4767 12.5717 19.3215 11.55 19.3215C8.48482 19.3215 6 21.8559 6 24.9823C6 28.1086 8.48482 30.643 11.55 30.643C12.5717 30.643 13.4 31.4878 13.4 32.53V38.1907C13.4 40.275 15.0565 41.9646 17.1 41.9646H20.8C21.8217 41.9646 22.65 41.1198 22.65 40.0776C22.65 36.9513 25.1348 34.4169 28.2 34.4169C31.2652 34.4169 33.75 36.9513 33.75 40.0776C33.75 41.1198 34.5783 41.9646 35.6 41.9646H39.3C41.3435 41.9646 43 40.275 43 38.1907V32.53C43 31.4878 42.1717 30.643 41.15 30.643C38.0848 30.643 35.6 28.1086 35.6 24.9823C35.6 21.8559 38.0848 19.3215 41.15 19.3215C42.1717 19.3215 43 18.4767 43 17.4346V11.7738C43 9.68961 41.3435 8 39.3 8Z" stroke="url(#paint0_linear_945_1011)" stroke-width="4" stroke-linejoin="round"></path><defs><linearGradient id="paint0_linear_945_1011" x1="24.5" y1="8" x2="24.5" y2="41.9646" gradientUnits="userSpaceOnUse"><stop stop-color="#A964ED"></stop><stop offset="1" stop-color="#00A1FF"></stop></linearGradient></defs></svg>