<svg xmlns="http://www.w3.org/2000/svg" width="50" height="50" viewBox="0 0 50 50" fill="none"><path d="M33 17H17C12.5817 17 9 20.5817 9 25V37C9 41.4183 12.5817 45 17 45H33C37.4183 45 41 41.4183 41 37V25C41 20.5817 37.4183 17 33 17ZM33 17L33.0001 13C33.0001 8.58172 29.4183 5 25.0001 5C22.0389 5 19.4536 6.60879 18.0703 9M29 31C29 33.2091 27.2091 35 25 35C22.7909 35 21 33.2091 21 31C21 28.7909 22.7909 27 25 27C27.2091 27 29 28.7909 29 31Z" stroke="url(#paint0_linear_945_1021)" stroke-width="4" stroke-linecap="round" stroke-linejoin="round"></path><defs><linearGradient id="paint0_linear_945_1021" x1="25" y1="5" x2="25" y2="45" gradientUnits="userSpaceOnUse"><stop stop-color="#A964ED"></stop><stop offset="1" stop-color="#00A1FF"></stop></linearGradient></defs></svg>