<svg xmlns="http://www.w3.org/2000/svg" width="50" height="50" viewBox="0 0 50 50" fill="none"><path fill-rule="evenodd" clip-rule="evenodd" d="M5 15.3333C5 10.2674 8.94278 6 14 6H35C40.0572 6 44 10.2674 44 15.3333V17.1667C44 19.3235 42.3397 20.6824 40.9636 21.1815C39.7193 21.6328 38.75 22.9129 38.75 24.5C38.75 26.0871 39.7193 27.3672 40.9636 27.8185C42.3397 28.3176 44 29.6765 44 31.8333V33.6667C44 38.7326 40.0572 43 35 43H14C8.94278 43 5 38.7326 5 33.6667V31.8333C5 29.6765 6.66033 28.3176 8.03638 27.8185C9.2807 27.3672 10.25 26.0871 10.25 24.5C10.25 22.9129 9.2807 21.6328 8.03638 21.1815L8.65576 19.4738L8.03638 21.1815C6.66033 20.6824 5 19.3235 5 17.1667V15.3333ZM14 10C11.3252 10 9 12.2991 9 15.3333V17.142C9.00536 17.1508 9.01493 17.1644 9.03116 17.1832C9.09925 17.2622 9.23001 17.3595 9.40025 17.4212C12.2672 18.461 14.25 21.2729 14.25 24.5C14.25 27.7271 12.2672 30.539 9.40025 31.5788C9.23 31.6406 9.09924 31.7378 9.03116 31.8168C9.01493 31.8356 9.00536 31.8492 9 31.858V33.6667C9 36.7009 11.3252 39 14 39H35C37.6748 39 40 36.7009 40 33.6667V31.858C39.9946 31.8492 39.9851 31.8356 39.9688 31.8168C39.9008 31.7378 39.77 31.6406 39.5997 31.5788C36.7328 30.539 34.75 27.7271 34.75 24.5C34.75 21.2729 36.7328 18.461 39.5997 17.4212C39.77 17.3595 39.9008 17.2622 39.9688 17.1832C39.9851 17.1644 39.9946 17.1508 40 17.142V15.3333C40 12.2991 37.6748 10 35 10H14ZM40.0061 17.1301C40.0062 17.1301 40.0057 17.1316 40.0042 17.1346C40.0051 17.1317 40.0059 17.1302 40.0061 17.1301ZM40.0061 31.8699C40.0059 31.8698 40.0051 31.8683 40.0042 31.8654C40.0058 31.8684 40.0062 31.8699 40.0061 31.8699ZM8.99393 31.8699C8.99379 31.8699 8.99426 31.8684 8.99579 31.8654L8.99457 31.8687L8.99393 31.8699ZM8.99393 17.1301C8.99408 17.1302 8.99485 17.1317 8.99579 17.1346C8.99426 17.1316 8.99379 17.1301 8.99393 17.1301ZM15.5 19C15.5 16.9716 17.0923 15.1667 19.25 15.1667C21.4077 15.1667 23 16.9716 23 19C23 21.0284 21.4077 22.8333 19.25 22.8333C17.0923 22.8333 15.5 21.0284 15.5 19ZM28.3033 17.619C29.066 16.8201 30.332 16.7906 31.131 17.5533C31.9299 18.316 31.9594 19.582 31.1967 20.381L20.6967 31.381C19.934 32.1799 18.668 32.2094 17.869 31.4467C17.0701 30.684 17.0406 29.418 17.8033 28.6191L28.3033 17.619ZM26 30C26 27.9716 27.5923 26.1667 29.75 26.1667C31.9077 26.1667 33.5 27.9716 33.5 30C33.5 32.0284 31.9077 33.8333 29.75 33.8333C27.5923 33.8333 26 32.0284 26 30Z" fill="url(#paint0_linear_945_1024)"></path><defs><linearGradient id="paint0_linear_945_1024" x1="24.5" y1="6" x2="24.5" y2="43" gradientUnits="userSpaceOnUse"><stop stop-color="#A964ED"></stop><stop offset="1" stop-color="#00A1FF"></stop></linearGradient></defs></svg>