<svg xmlns="http://www.w3.org/2000/svg" width="2000" height="1621" viewBox="0 0 2000 1621" fill="none"><g style="mix-blend-mode:overlay"><path d="M1593.79 810.5C1593.79 1077.71 1322.52 1294.5 987.635 1294.5C652.752 1294.5 381.477 1077.71 381.477 810.5C381.477 543.293 652.752 326.5 987.635 326.5C1322.52 326.5 1593.79 543.293 1593.79 810.5Z" stroke="white" stroke-opacity="0.2"></path></g><g style="mix-blend-mode:overlay"><path d="M1999.5 810.5C1999.5 1257.76 1552.11 1620.5 1000 1620.5C447.888 1620.5 0.5 1257.76 0.5 810.5C0.5 363.242 447.888 0.5 1000 0.5C1552.11 0.5 1999.5 363.242 1999.5 810.5Z" stroke="white" stroke-opacity="0.2"></path></g><g style="mix-blend-mode:overlay"><path d="M1633.86 810.5C1633.86 1096.49 1344.64 1328.5 987.63 1328.5C630.619 1328.5 341.402 1096.49 341.402 810.5C341.402 524.514 630.619 292.5 987.63 292.5C1344.64 292.5 1633.86 524.514 1633.86 810.5Z" stroke="white" stroke-opacity="0.2"></path></g></svg>