<svg xmlns="http://www.w3.org/2000/svg" width="42" height="42" viewBox="0 0 42 42" fill="none"><rect width="41.4678" height="41.4678" rx="5" fill="white"></rect><path d="M34.4282 23.205C34.4282 23.8186 34.3168 24.4054 34.113 24.9464C33.4154 26.7944 31.6429 28.1071 29.5657 28.1071C27.4399 28.1071 25.6335 26.732 24.9722 24.8158C21.0451 25.1003 18.7995 23.3307 17.8658 19.9576C15.5071 19.3109 13.7734 17.1367 13.7734 14.5536C13.7734 12.883 14.4991 11.3828 15.6498 10.3574C16.6291 9.48335 17.917 8.95312 19.3278 8.95312C20.9442 8.95312 22.3996 9.64892 23.4134 10.7611C24.0953 10.3116 24.9102 10.051 25.7854 10.051C26.3961 10.051 26.9783 10.1784 27.5059 10.4082C29.0323 11.0724 30.1057 12.594 30.1295 14.3713C30.1304 14.3921 30.1304 14.4121 30.1304 14.4329L30.1295 14.507V14.5079C30.3515 14.4587 30.5818 14.4329 30.8189 14.4329C31.8773 14.4329 32.8176 14.9441 33.4102 15.7348H33.4112C33.8222 16.2834 34.0658 16.9668 34.0658 17.7077C34.0673 18.476 33.7988 19.2201 33.3079 19.8078C33.2711 19.8532 33.2327 19.8973 33.1931 19.9402C33.9617 20.8067 34.4282 21.9512 34.4282 23.205Z" fill="white"></path><path d="M25.7399 14.1666C24.8603 15.1306 24.3229 16.4174 24.3229 17.8308C24.3229 20.82 26.7263 23.2433 29.691 23.2433C30.0735 23.2436 30.4549 23.2027 30.8289 23.1215M19.1016 12.4194C19.2359 14.3743 20.8512 15.9181 22.8241 15.9181M28.7583 15.1921C29.1573 14.8579 29.6306 14.626 30.1378 14.5163M23.4218 10.7695C22.7968 11.1798 22.2833 11.7485 21.9374 12.4194" stroke="#0D1422" stroke-miterlimit="10" stroke-linecap="round" stroke-linejoin="round"></path><path d="M34.4282 23.201C34.4282 25.9088 32.2513 28.1032 29.5657 28.1032C27.4399 28.1032 25.6335 26.7281 24.9722 24.8118C21.0451 25.0965 18.7995 23.3268 17.8658 19.9538C15.5071 19.307 13.7734 17.1328 13.7734 14.5497C13.7734 11.4565 16.26 8.94922 19.3278 8.94922C20.9442 8.94922 22.3996 9.64501 23.4134 10.7572C24.0953 10.3077 24.9102 10.0471 25.7854 10.0471C28.1852 10.0471 30.1304 12.0092 30.1304 14.429L30.1295 14.5031V14.504C30.3515 14.4548 30.5818 14.429 30.8189 14.429C32.6119 14.429 34.0658 15.8949 34.0658 17.7038C34.0658 18.567 33.7347 19.3512 33.1931 19.9363C33.9617 20.8028 34.4282 21.9473 34.4282 23.201Z" stroke="#0D1422" stroke-miterlimit="10" stroke-linejoin="round"></path><path d="M33.1951 19.9455C33.1951 19.9455 32.8182 19.5511 32.3026 19.1406M18.6957 28.8358C18.4829 28.3876 18.3467 27.9063 18.293 27.4123" stroke="#0D1422" stroke-miterlimit="10" stroke-linecap="round" stroke-linejoin="round"></path><path d="M28.2392 25.4204C28.411 25.9012 28.4988 26.4085 28.4984 26.9195C28.4984 29.5485 26.21 31.6785 23.3864 31.6785C21.2928 31.6785 19.4938 30.5073 18.7046 28.83C18.0542 29.2754 17.2739 29.5351 16.436 29.5351C14.5571 29.5351 12.9719 28.2315 12.475 26.4485C12.1202 26.5376 11.7559 26.5827 11.3902 26.5824C8.93578 26.5824 6.94531 24.5763 6.94531 22.1007C6.94531 20.1994 8.12007 18.5746 9.77779 17.9244C9.7126 17.6522 9.67792 17.3701 9.67792 17.0804C9.67792 14.8353 11.7468 13.0156 14.2994 13.0156C15.7649 13.0156 17.0724 13.6165 17.9187 14.5522C18.5973 14.1851 19.38 13.9746 20.2138 13.9746C22.8003 13.9746 24.8971 15.9965 24.8971 18.4904C24.8974 18.5493 24.8961 18.6081 24.893 18.6668C27.0272 19.0614 28.6493 21.0377 28.6493 23.4167C28.6493 24.1317 28.5032 24.8104 28.2392 25.4204Z" fill="white"></path><path d="M26.5723 23.2149C27.3341 23.7824 27.9171 24.55 28.2308 25.4307M12.4667 26.4587C12.361 26.0808 12.3048 25.682 12.3048 25.2691C12.3048 23.5842 13.2451 22.1268 14.6107 21.4301M10.927 17.6533C10.5225 17.695 10.1345 17.7907 9.76953 17.9347M17.9113 14.5633L17.9104 14.5625C17.3301 14.8788 16.8265 15.3101 16.4327 15.8246" stroke="#0D1422" stroke-miterlimit="10" stroke-linecap="round" stroke-linejoin="round"></path><path d="M28.2393 25.4204C28.4111 25.9012 28.4987 26.4085 28.4984 26.9196C28.4984 29.5485 26.2099 31.6785 23.3864 31.6785C21.2929 31.6785 19.4939 30.5073 18.7047 28.83C18.0542 29.2754 17.2739 29.535 16.436 29.535C14.5571 29.535 12.9719 28.2315 12.475 26.4485C12.1202 26.5376 11.7559 26.5827 11.3902 26.5824C8.93578 26.5824 6.94531 24.5763 6.94531 22.1007C6.94531 20.1994 8.12008 18.5746 9.7778 17.9244C9.7126 17.6522 9.67792 17.3701 9.67792 17.0804C9.67792 14.8353 11.7468 13.0156 14.2995 13.0156C15.7649 13.0156 17.0724 13.6165 17.9187 14.5522C18.5973 14.1851 19.38 13.9746 20.2139 13.9746C22.8003 13.9746 24.8972 15.9966 24.8972 18.4905C24.8975 18.5493 24.896 18.6081 24.8931 18.6668C27.0272 19.0614 28.6494 21.0377 28.6494 23.4168C28.6494 24.1317 28.5033 24.8102 28.2391 25.4203L28.2393 25.4204Z" stroke="#0D1422" stroke-miterlimit="10" stroke-linejoin="round"></path><path d="M20.8897 20.0103C21.7119 19.1379 22.8471 18.5977 24.1002 18.5977C24.3677 18.5977 24.6295 18.6218 24.8845 18.6691M24.5905 24.3394C23.9427 25.1562 22.946 25.6795 21.8281 25.6795C19.8756 25.6795 18.293 24.0836 18.293 22.1151C18.2917 21.2931 18.5734 20.4962 19.09 19.8603" stroke="#0D1422" stroke-miterlimit="10" stroke-linecap="round" stroke-linejoin="round"></path><path d="M23.3974 27.444C23.3974 26.744 23.2223 26.0856 22.9135 25.5103M16.0093 25.1674C16.5922 24.2966 17.4996 23.6665 18.5571 23.4527M9.70703 22.1056C10.1548 21.9269 10.6322 21.835 11.1138 21.8351C11.8861 21.8341 12.6403 22.0704 13.2759 22.5129M16.9749 18.8251C16.7344 18.8965 16.4798 18.9348 16.2163 18.9348C15.5168 18.9357 14.8449 18.6605 14.3443 18.168M28.5769 18.6513C28.947 18.3729 29.3965 18.2229 29.8582 18.2236C29.9865 18.2235 30.1145 18.235 30.2408 18.2579" stroke="#0D1422" stroke-miterlimit="10" stroke-linecap="round" stroke-linejoin="round"></path><path d="M33.573 19.9443C34.0782 19.3122 34.3539 18.5283 34.3539 17.71C34.3539 15.7436 32.7676 14.1438 30.818 14.1438C30.6817 14.1438 30.5457 14.1518 30.4108 14.1675C30.2729 11.7147 28.2505 9.76198 25.7843 9.76198C24.9621 9.76198 24.1632 9.97905 23.4596 10.3919C22.3631 9.28703 20.8768 8.66569 19.3267 8.66406C16.7286 8.66406 14.5221 10.3831 13.7647 12.752C11.302 12.9843 9.37708 14.8379 9.37708 17.0832C9.37708 17.3066 9.39645 17.5304 9.43466 17.7512C7.73155 18.5208 6.64453 20.2032 6.64453 22.1034C6.64453 24.7353 8.76811 26.8766 11.3783 26.8766C11.6764 26.8766 11.9738 26.8486 12.2667 26.7928C12.8863 28.5937 14.5589 29.8291 16.4242 29.8291C17.181 29.8297 17.9246 29.6291 18.5801 29.2475C19.5029 30.9132 21.3489 31.9726 23.3746 31.9726C25.8409 31.9726 27.9249 30.4181 28.5688 28.3025C28.8926 28.3667 29.2257 28.4007 29.5646 28.4007C32.4052 28.4007 34.7162 26.0708 34.7162 23.2073C34.7162 22.0143 34.312 20.8654 33.573 19.9443Z" stroke="#0D1422" stroke-miterlimit="10" stroke-linejoin="round"></path><path d="M19.3334 7C17.8072 7 16.3391 7.45825 15.0879 8.32511C14.0076 9.07361 13.1512 10.0832 12.5855 11.2687C9.83199 11.9415 7.86332 14.1757 7.73887 16.8177C6.03458 18.0108 5 19.9809 5 22.1043C5 25.617 7.80474 28.4816 11.2746 28.5413C12.3702 30.3564 14.3233 31.4949 16.4308 31.4949C16.9692 31.4949 17.4983 31.423 18.0114 31.2803C19.3396 32.7697 21.291 33.6384 23.3812 33.6384C24.7971 33.6384 26.1685 33.2335 27.3474 32.4679C28.3053 31.8459 29.0771 31.0247 29.6112 30.0662C33.3441 30.0446 36.3739 26.9764 36.3739 23.2081C36.3739 22.0439 36.0851 20.9141 35.5334 19.904C35.8487 19.2166 36.0118 18.4681 36.0117 17.7107C36.0117 16.3389 35.4872 15.0417 34.535 14.0582C33.7841 13.2826 32.8336 12.7702 31.7992 12.5719C31.4495 11.4275 30.78 10.3963 29.865 9.61046C28.7281 8.63466 27.284 8.09848 25.7911 8.0978C25.0951 8.0978 24.3967 8.21686 23.7386 8.44498C22.4603 7.50913 20.9197 7 19.3334 7ZM19.3334 8.08213C20.8808 8.08213 22.3984 8.66155 23.5607 9.68457C24.2579 9.35217 25.0196 9.17986 25.791 9.18006C28.3598 9.18006 30.5169 11.0637 30.9313 13.5633C33.1503 13.6207 34.9383 15.4592 34.9383 17.7108C34.9375 18.4997 34.7142 19.2722 34.2947 19.938C34.946 20.8951 35.3006 22.04 35.3006 23.2081C35.3006 26.3932 32.7304 28.9844 29.5712 28.9844C29.3669 28.9844 29.1618 28.9731 28.9577 28.9509C28.0761 31.0968 25.8542 32.5563 23.3811 32.5563C21.3416 32.5563 19.4726 31.5918 18.3761 30.0061C17.7619 30.2741 17.1 30.4125 16.4308 30.4128C14.4811 30.4128 12.7177 29.234 11.9057 27.4346C11.7327 27.4516 11.5587 27.4602 11.3849 27.4602C8.45612 27.4602 6.07328 25.0576 6.07328 22.1043C6.07328 20.1436 7.13752 18.3474 8.81815 17.4146C8.81 17.3046 8.80591 17.1943 8.80588 17.084C8.80588 14.6617 10.7328 12.6266 13.3461 12.2191C14.3008 9.72946 16.6616 8.08213 19.3334 8.08213Z" fill="white"></path></svg>