<svg xmlns="http://www.w3.org/2000/svg" width="148" height="40" viewBox="0 0 148 40" fill="none"><path d="M35.7698 25.6695L45.3248 13.9763H35.9925V11.7713H48.2871V13.6867L38.9771 25.38H48.3094V27.585H35.7698V25.6695Z" fill="white"></path><path d="M55.531 27.8077C54.6252 27.8077 53.8011 27.6518 53.0587 27.34C52.3311 27.0133 51.7001 26.5753 51.1655 26.0259C50.631 25.4616 50.2152 24.8231 49.9182 24.1104C49.6361 23.3828 49.4951 22.6107 49.4951 21.794C49.4951 20.6952 49.7475 19.693 50.2523 18.7872C50.7572 17.8666 51.4625 17.1316 52.3683 16.5822C53.274 16.0179 54.3357 15.7358 55.5533 15.7358C56.7709 15.7358 57.8177 16.0179 58.6937 16.5822C59.5847 17.1316 60.2751 17.8592 60.7651 18.7649C61.2551 19.6707 61.5001 20.6433 61.5001 21.6827C61.5001 21.8609 61.4927 22.0316 61.4779 22.1949C61.463 22.3434 61.4482 22.4696 61.4333 22.5736H52.101C52.1455 23.2566 52.3311 23.858 52.6578 24.3777C52.9993 24.8825 53.4299 25.2834 53.9496 25.5804C54.4693 25.8625 55.0261 26.0036 55.6201 26.0036C56.2734 26.0036 56.8896 25.8403 57.4687 25.5136C58.0627 25.1869 58.4636 24.7563 58.6715 24.2218L60.7651 24.8231C60.5127 25.3874 60.1266 25.8997 59.6069 26.36C59.1021 26.8054 58.5007 27.1618 57.8028 27.4291C57.1049 27.6815 56.3477 27.8077 55.531 27.8077ZM52.0342 20.9477H59.0724C59.0278 20.2795 58.8348 19.693 58.4933 19.1881C58.1666 18.6684 57.7434 18.2675 57.2237 17.9854C56.7189 17.6884 56.1546 17.5399 55.531 17.5399C54.9222 17.5399 54.358 17.6884 53.8383 17.9854C53.3334 18.2675 52.9177 18.6684 52.591 19.1881C52.2643 19.693 52.0787 20.2795 52.0342 20.9477Z" fill="white"></path><path d="M70.0468 18.0522C69.0965 18.067 68.2501 18.2824 67.5077 18.6981C66.7801 19.1139 66.2604 19.7004 65.9486 20.4577V27.585H63.4986V15.9363H65.7704V18.5422C66.1713 17.7404 66.6985 17.1019 67.3518 16.6267C68.0051 16.1367 68.6956 15.8695 69.4232 15.8249C69.5716 15.8249 69.6904 15.8249 69.7795 15.8249C69.8835 15.8249 69.9726 15.8323 70.0468 15.8472V18.0522Z" fill="white"></path><path d="M76.8458 27.8077C75.9251 27.8077 75.1011 27.6518 74.3735 27.34C73.6459 27.0133 73.0148 26.5678 72.4803 26.0036C71.9606 25.4394 71.5597 24.8009 71.2775 24.0881C70.9954 23.3606 70.8544 22.5884 70.8544 21.7718C70.8544 20.9551 70.9954 20.183 71.2775 19.4554C71.5597 18.7278 71.9606 18.0893 72.4803 17.5399C73.0148 16.9757 73.6459 16.5376 74.3735 16.2258C75.1159 15.8992 75.94 15.7358 76.8458 15.7358C77.7515 15.7358 78.5682 15.8992 79.2958 16.2258C80.0382 16.5376 80.6693 16.9757 81.189 17.5399C81.7235 18.0893 82.1318 18.7278 82.414 19.4554C82.6961 20.183 82.8371 20.9551 82.8371 21.7718C82.8371 22.5884 82.6961 23.3606 82.414 24.0881C82.1318 24.8009 81.7235 25.4394 81.189 26.0036C80.6693 26.5678 80.0382 27.0133 79.2958 27.34C78.5682 27.6518 77.7515 27.8077 76.8458 27.8077ZM73.3712 21.794C73.3712 22.5365 73.5271 23.2046 73.8389 23.7986C74.1507 24.3925 74.5665 24.8603 75.0862 25.2018C75.6059 25.5433 76.1924 25.7141 76.8458 25.7141C77.4842 25.7141 78.0633 25.5433 78.583 25.2018C79.1176 24.8454 79.5408 24.3703 79.8526 23.7763C80.1644 23.1675 80.3203 22.4993 80.3203 21.7718C80.3203 21.0293 80.1644 20.3612 79.8526 19.7672C79.5408 19.1733 79.1176 18.7055 78.583 18.364C78.0633 18.0077 77.4842 17.8295 76.8458 17.8295C76.1924 17.8295 75.6059 18.0077 75.0862 18.364C74.5665 18.7204 74.1507 19.1955 73.8389 19.7895C73.5271 20.3686 73.3712 21.0368 73.3712 21.794Z" fill="white"></path><path d="M85.1262 27.585V11.7713H87.6208V25.38H96.1067V27.585H85.1262Z" fill="white"></path><path d="M97.8214 27.585V15.9363H100.271V27.585H97.8214ZM97.8214 14.0208V11.3258H100.271V14.0208H97.8214Z" fill="white"></path><path d="M107.648 27.8077C106.891 27.8077 106.193 27.6518 105.554 27.34C104.931 27.0133 104.389 26.5753 103.928 26.0259C103.468 25.4616 103.112 24.8157 102.859 24.0881C102.622 23.3457 102.503 22.5662 102.503 21.7495C102.503 20.918 102.636 20.1384 102.904 19.4108C103.186 18.6833 103.572 18.0448 104.062 17.4954C104.567 16.946 105.153 16.5154 105.821 16.2036C106.49 15.8917 107.21 15.7358 107.982 15.7358C108.873 15.7358 109.675 15.9511 110.387 16.3817C111.115 16.8123 111.687 17.3692 112.102 18.0522V15.9363H114.263V32.3291H111.813V25.4022C110.833 27.0059 109.445 27.8077 107.648 27.8077ZM108.539 25.7141C109.029 25.7141 109.474 25.6175 109.875 25.4245C110.291 25.2315 110.655 24.9716 110.967 24.645C111.293 24.3034 111.575 23.9174 111.813 23.4868V20.4131C111.739 20.0568 111.59 19.7301 111.367 19.4331C111.16 19.1213 110.9 18.8466 110.588 18.609C110.276 18.3566 109.942 18.1636 109.586 18.0299C109.229 17.8963 108.88 17.8295 108.539 17.8295C108.019 17.8295 107.544 17.9408 107.113 18.1636C106.683 18.3863 106.304 18.6907 105.977 19.0768C105.666 19.448 105.421 19.8711 105.242 20.3463C105.079 20.8215 104.997 21.3115 104.997 21.8163C104.997 22.529 105.146 23.1824 105.443 23.7763C105.755 24.3554 106.17 24.8231 106.69 25.1795C107.225 25.5359 107.841 25.7141 108.539 25.7141Z" fill="white"></path><path d="M117.09 23.0636V15.9363H119.54V22.5736C119.54 23.613 119.726 24.4 120.097 24.9345C120.483 25.4542 121.04 25.7141 121.767 25.7141C122.228 25.7141 122.673 25.6175 123.104 25.4245C123.549 25.2315 123.95 24.9494 124.306 24.5781C124.678 24.1921 124.975 23.7318 125.197 23.1972V15.9363H127.647V24.8231C127.647 25.1053 127.699 25.3057 127.803 25.4245C127.907 25.5433 128.078 25.6101 128.316 25.625V27.585C128.063 27.6295 127.855 27.6592 127.692 27.6741C127.529 27.6889 127.373 27.6963 127.224 27.6963C126.779 27.6963 126.407 27.5775 126.11 27.34C125.814 27.0875 125.643 26.7683 125.598 26.3822L125.554 25.2241C125.034 26.0704 124.358 26.7163 123.527 27.1618C122.695 27.5924 121.782 27.8077 120.787 27.8077C119.57 27.8077 118.649 27.4068 118.025 26.605C117.402 25.8031 117.09 24.6227 117.09 23.0636Z" fill="white"></path><path d="M130.774 27.585V15.9363H133.224V27.585H130.774ZM130.774 14.0208V11.3258H133.224V14.0208H130.774Z" fill="white"></path><path d="M135.433 21.7718C135.433 20.6581 135.656 19.6484 136.101 18.7427C136.562 17.822 137.185 17.0945 137.972 16.5599C138.759 16.0105 139.665 15.7358 140.689 15.7358C141.58 15.7358 142.382 15.966 143.095 16.4263C143.823 16.8866 144.387 17.4583 144.788 18.1413V11.3258H147.238V24.8231C147.238 25.1053 147.29 25.3057 147.394 25.4245C147.498 25.5433 147.668 25.6101 147.906 25.625V27.585C147.446 27.6592 147.089 27.6963 146.837 27.6963C146.376 27.6963 145.983 27.5627 145.656 27.2954C145.344 27.0282 145.181 26.7089 145.166 26.3377L145.144 25.4691C144.699 26.2115 144.097 26.7906 143.34 27.2063C142.583 27.6072 141.796 27.8077 140.979 27.8077C140.177 27.8077 139.435 27.6518 138.752 27.34C138.084 27.0282 137.497 26.5901 136.992 26.0259C136.502 25.4616 136.116 24.8157 135.834 24.0881C135.567 23.3606 135.433 22.5884 135.433 21.7718ZM144.788 23.3977V20.3463C144.624 19.8711 144.357 19.448 143.986 19.0768C143.629 18.6907 143.221 18.3863 142.761 18.1636C142.315 17.9408 141.87 17.8295 141.424 17.8295C140.905 17.8295 140.43 17.9408 139.999 18.1636C139.583 18.3863 139.219 18.6833 138.908 19.0545C138.611 19.4257 138.381 19.8489 138.217 20.324C138.054 20.7992 137.972 21.2966 137.972 21.8163C137.972 22.3509 138.061 22.8557 138.239 23.3309C138.418 23.7912 138.67 24.2069 138.997 24.5781C139.338 24.9345 139.724 25.2166 140.155 25.4245C140.6 25.6175 141.083 25.7141 141.603 25.7141C141.929 25.7141 142.256 25.6547 142.583 25.5359C142.924 25.4171 143.243 25.2537 143.54 25.0459C143.852 24.838 144.112 24.593 144.32 24.3109C144.543 24.0287 144.699 23.7243 144.788 23.3977Z" fill="white"></path><path d="M13.5319 0C13.5662 0.0616414 13.5936 0.102735 13.621 0.143829C14.1895 1.12324 14.7511 2.10951 15.3195 3.08892C15.3743 3.18481 15.3743 3.2533 15.3195 3.34918C12.0799 8.87637 8.84034 14.4104 5.60074 19.9376C5.21035 20.6088 4.81995 21.2731 4.42271 21.9444C4.22409 22.2731 4.09395 22.6361 3.97067 22.9991C3.51178 24.3415 3.34741 25.725 3.46384 27.1359C3.62137 29.1153 4.29943 30.8961 5.48431 32.485C5.9295 33.0878 6.44318 33.6288 7.01165 34.1151C8.23763 35.163 9.63484 35.8822 11.1964 36.2726C12.3471 36.5602 13.5045 36.6424 14.6826 36.5328C16.6003 36.3479 18.3263 35.6767 19.8742 34.5261C20.4563 34.0946 20.9769 33.6014 21.4563 33.0535C22.422 31.9371 23.1138 30.6769 23.5384 29.2591C23.9219 27.9715 24.0452 26.6565 23.9151 25.3209C23.8124 24.1977 23.5247 23.1224 23.0658 22.095C23.011 21.9649 22.9425 21.8416 22.874 21.7183C20.9632 18.5267 19.0454 15.3419 17.1345 12.1502C17.114 12.116 17.0935 12.0886 17.0729 12.0543C17.0113 12.0749 16.9976 12.1297 16.9702 12.1776C16.1414 13.5269 15.3127 14.8761 14.4908 16.2322C14.4292 16.335 14.3538 16.3898 14.2374 16.4103C12.8744 16.6363 11.5183 16.8692 10.1554 17.1021C10.1348 17.1089 10.1074 17.1089 10.0732 17.0884C12.395 13.2324 14.7237 9.3695 17.0455 5.51348C17.1071 5.55458 17.1208 5.60937 17.1482 5.65047C19.4564 9.52703 21.7645 13.4036 24.0658 17.287C24.2165 17.5404 24.4014 17.7664 24.5726 17.9925C25.1 18.6842 25.5589 19.4171 25.9424 20.1978C26.0726 20.465 26.189 20.7458 26.3191 21.0129C26.4698 21.3348 26.5657 21.6704 26.6821 21.9991C26.7986 22.3348 26.8944 22.6704 26.9766 23.0197C27.2574 24.1429 27.3876 25.2867 27.3739 26.4442C27.3533 28.6496 26.8328 30.7248 25.8123 32.6837C25.3739 33.5261 24.8534 34.3069 24.2507 35.0397C23.7439 35.6562 23.1891 36.2178 22.5795 36.7314C21.8604 37.3479 21.0933 37.8752 20.2646 38.3273C19.2098 38.9026 18.1003 39.3341 16.9291 39.6149C15.6072 39.9368 14.2648 40.0532 12.9087 39.9779C11.4567 39.8957 10.0526 39.5944 8.69652 39.067C7.53218 38.6149 6.44318 38.0054 5.44322 37.2588C4.64188 36.6561 3.92273 35.9712 3.27207 35.211C2.3269 34.1083 1.58035 32.8754 1.02558 31.533C0.573543 30.4303 0.265337 29.2865 0.114658 28.1016C-0.0634173 26.6976 -0.0360216 25.3004 0.210544 23.9032C0.443412 22.595 0.861203 21.3553 1.44337 20.1636C1.70364 19.6294 2.02554 19.1362 2.3269 18.6294C3.50494 16.6774 4.67612 14.7323 5.84731 12.7803C8.37461 8.56816 10.9088 4.35599 13.4361 0.143829C13.4703 0.0958861 13.4977 0.0547924 13.5319 0Z" fill="white"></path><path d="M5.47754 26.3072C5.47754 21.7595 9.14178 18.0884 13.6896 18.0884C18.2442 18.0884 21.9016 21.7458 21.9016 26.3004C21.9016 30.855 18.2442 34.5124 13.6896 34.5055C9.14178 34.5124 5.47754 30.8482 5.47754 26.3072ZM13.6827 31.2317C16.4086 31.2386 18.614 29.0469 18.6209 26.3209C18.6277 23.643 16.4977 21.3896 13.7101 21.3828C10.9705 21.3691 8.78563 23.5471 8.76508 26.2867C8.74454 29.0126 10.9499 31.2249 13.6827 31.2317Z" fill="white"></path></svg>