<svg xmlns="http://www.w3.org/2000/svg" width="306" height="446" viewBox="0 0 306 446" fill="none"><path d="M151.262 0C151.645 0.687302 151.951 1.1455 152.257 1.6037C158.612 12.5242 164.89 23.521 171.244 34.4415C171.857 35.5106 171.857 36.2743 171.244 37.3434C135.031 98.9715 98.8187 160.676 62.6059 222.304C58.242 229.788 53.8781 237.196 49.4377 244.68C47.2174 248.345 45.7628 252.393 44.3847 256.44C39.2552 271.408 37.4178 286.834 38.7193 302.566C40.4802 324.636 48.0596 344.491 61.3044 362.208C66.2808 368.929 72.0228 374.961 78.3772 380.384C92.0814 392.068 107.7 400.086 125.155 404.439C138.017 407.647 150.956 408.563 164.124 407.341C185.561 405.279 204.854 397.795 222.156 384.966C228.664 380.154 234.482 374.656 239.842 368.547C250.636 356.099 258.369 342.047 263.116 326.239C267.403 311.882 268.781 297.22 267.326 282.328C266.178 269.804 262.963 257.815 257.833 246.36C257.221 244.909 256.455 243.534 255.689 242.159C234.329 206.572 212.893 171.062 191.532 135.475C191.303 135.093 191.073 134.788 190.843 134.406C190.154 134.635 190.001 135.246 189.695 135.78C180.431 150.825 171.168 165.869 161.98 180.99C161.291 182.135 160.449 182.746 159.148 182.975C143.912 185.495 128.753 188.092 113.518 190.688C113.288 190.765 112.982 190.765 112.599 190.535C138.553 147.541 164.583 104.47 190.537 61.4753C191.226 61.9336 191.379 62.5445 191.686 63.0027C217.486 106.226 243.287 149.45 269.011 192.75C270.695 195.576 272.762 198.096 274.676 200.616C280.571 208.329 285.701 216.5 289.988 225.206C291.443 228.184 292.744 231.315 294.199 234.294C295.883 237.883 296.955 241.625 298.257 245.291C299.558 249.032 300.63 252.774 301.549 256.669C304.688 269.193 306.142 281.947 305.989 294.853C305.759 319.443 299.941 342.582 288.533 364.423C283.634 373.816 277.815 382.522 271.078 390.693C265.412 397.566 259.211 403.828 252.397 409.556C244.359 416.429 235.784 422.309 226.52 427.349C214.73 433.764 202.327 438.575 189.236 441.706C174.46 445.295 159.454 446.594 144.295 445.754C128.064 444.837 112.37 441.477 97.2109 435.597C84.1958 430.557 72.0228 423.76 60.8451 415.436C51.8876 408.716 43.8488 401.079 36.5756 392.602C26.0104 380.307 17.6654 366.561 11.4641 351.593C6.41115 339.298 2.96598 326.545 1.28166 313.333C-0.708888 297.678 -0.402654 282.099 2.35349 266.521C4.95652 251.934 9.62665 238.112 16.1342 224.824C19.0435 218.868 22.6418 213.369 26.0104 207.718C39.1787 185.953 52.2704 164.265 65.3621 142.501C93.6126 95.535 121.94 48.5693 150.19 1.6037C150.573 1.06913 150.879 0.610935 151.262 0Z" fill="url(#paint0_linear_945_1049)"></path><path d="M61.2344 293.332C61.2344 242.624 102.194 201.691 153.029 201.691C203.942 201.691 244.824 242.471 244.824 293.255C244.824 344.039 203.942 384.819 153.029 384.743C102.194 384.819 61.2344 343.963 61.2344 293.332ZM152.953 348.239C183.424 348.316 208.076 323.878 208.152 293.484C208.229 263.625 184.419 238.5 153.259 238.424C122.635 238.271 98.2127 262.556 97.983 293.103C97.7533 323.497 122.406 348.163 152.953 348.239Z" fill="white"></path><defs><linearGradient id="paint0_linear_945_1049" x1="153" y1="0" x2="153" y2="446" gradientUnits="userSpaceOnUse"><stop stop-color="#A964ED"></stop><stop offset="1" stop-color="#00A1FF"></stop></linearGradient></defs></svg>