<svg xmlns="http://www.w3.org/2000/svg" width="600" height="212" viewBox="0 0 600 212" fill="none"><path fill-rule="evenodd" clip-rule="evenodd" d="M161.94 106.185L181.3 125.901L149.7 158.001L141.6 150.001L165.3 125.901L154.2 114.601L126.599 142.534V157.199H115.699V142.805L87.5 114.101L76.5 125.301L100.5 149.801L92.4 157.801L60.5 125.301L79.7436 105.701L60.3984 86L91.9984 54L100.098 62L76.3984 86.1L87.4984 97.4L115.699 68.688V54.6992H126.599V69.8083L154.098 97.8L165.098 86.6L141.098 62.1L149.198 54.1L181.098 86.6L161.94 106.185ZM146.34 106.101L121 131.901L95.3581 105.8L120.698 80L146.34 106.101Z" fill="url(#paint0_radial_901_487)"></path><path d="M213.002 79.3008H202.102V134.201H213.002V79.3008Z" fill="url(#paint1_radial_901_487)"></path><path d="M268.302 93.8008C263.302 93.8008 258.602 95.9008 256.302 100.601C253.902 96.0008 249.302 93.8008 244.002 93.8008C239.202 93.8008 235.502 95.6008 233.602 98.9008L232.502 94.6008H222.602V134.201H233.302V112.001C233.302 106.101 236.302 103.301 240.802 103.301C245.102 103.301 248.002 106.001 248.002 112.401V134.101H258.302V112.101C258.502 105.901 261.702 103.201 265.802 103.201C270.102 103.201 273.002 105.901 273.002 111.801V134.101H283.702V109.601C283.602 98.8008 276.202 93.8008 268.302 93.8008Z" fill="url(#paint2_radial_901_487)"></path><path d="M337.9 93.8008C332.9 93.8008 328.2 95.9008 325.9 100.601C323.5 96.0008 318.9 93.8008 313.6 93.8008C308.8 93.8008 305.1 95.6008 303.2 98.9008L302 94.6008H292V134.201H302.7V112.001C302.7 106.101 305.7 103.301 310.2 103.301C314.5 103.301 317.4 106.001 317.4 112.401V134.101H327.7V112.101C327.9 105.901 331.1 103.201 335.2 103.201C339.5 103.201 342.4 105.901 342.4 111.801V134.101H353.1V109.601C353.2 98.8008 345.8 93.8008 337.9 93.8008Z" fill="url(#paint3_radial_901_487)"></path><path d="M387.601 94.5996V116.3C387.601 122.2 384.901 125.7 379.601 125.8C374.601 126 371.401 123 371.401 116.8V94.5996H361.301V118.2C361.301 128.3 367.201 135 377.301 135C382.001 135 385.501 132.9 387.501 129.9L388.001 134.2H397.801V94.5996H387.601Z" fill="url(#paint4_radial_901_487)"></path><path d="M429.102 93.8008C423.202 93.8008 419.202 96.0008 417.102 99.3008L416.502 94.6008H406.602V134.201H417.302V113.201C417.302 106.801 420.302 102.901 426.002 102.901C431.202 102.901 434.302 106.301 434.302 112.801V134.101H445.002V110.501C445.002 100.501 439.202 93.8008 429.102 93.8008Z" fill="url(#paint5_radial_901_487)"></path><path d="M491.701 113.801C491.701 101.701 483.801 93.8008 472.001 93.8008C460.201 93.8008 452.301 102.001 452.301 114.401C452.301 126.801 460.201 135.101 472.101 135.101C482.101 135.101 489.601 129.501 491.401 121.301H480.701C479.501 124.701 476.401 126.501 472.501 126.501C467.401 126.501 463.301 123.201 463.101 117.401H491.801V113.801H491.701ZM472.001 102.101C476.601 102.101 480.501 104.801 481.001 110.301H463.101C463.601 104.801 467.501 102.101 472.001 102.101Z" fill="url(#paint6_radial_901_487)"></path><path d="M495.902 94.6004V103.9H502.002V134.2H512.702V103.9H521.802V94.6004H512.702V90.6004C512.702 87.8004 513.502 85.6004 517.802 85.6004H521.802V76.9004H515.502C505.502 76.9004 502.002 81.8004 502.002 89.5004V94.6004H495.902Z" fill="url(#paint7_radial_901_487)"></path><path d="M528.801 88.5004H539.601L539.801 76.9004H529.001L528.801 88.5004ZM529.001 134.2H539.701V94.6004H529.001V134.2Z" fill="url(#paint8_radial_901_487)"></path><defs><radialGradient id="paint0_radial_901_487" cx="0" cy="0" r="1" gradientUnits="userSpaceOnUse" gradientTransform="translate(121 103.6) rotate(-90) scale(50 98.1999)"><stop stop-color="#7C3C8F"></stop><stop offset="1" stop-color="#E72180"></stop></radialGradient><radialGradient id="paint1_radial_901_487" cx="0" cy="0" r="1" gradientUnits="userSpaceOnUse" gradientTransform="translate(370.943 105.972) rotate(90) scale(29.0808 168.873)"><stop stop-color="#7C3C8F"></stop><stop offset="1" stop-color="#E72180"></stop></radialGradient><radialGradient id="paint2_radial_901_487" cx="0" cy="0" r="1" gradientUnits="userSpaceOnUse" gradientTransform="translate(370.943 105.972) rotate(90) scale(29.0808 168.873)"><stop stop-color="#7C3C8F"></stop><stop offset="1" stop-color="#E72180"></stop></radialGradient><radialGradient id="paint3_radial_901_487" cx="0" cy="0" r="1" gradientUnits="userSpaceOnUse" gradientTransform="translate(370.941 105.972) rotate(90) scale(29.0808 168.873)"><stop stop-color="#7C3C8F"></stop><stop offset="1" stop-color="#E72180"></stop></radialGradient><radialGradient id="paint4_radial_901_487" cx="0" cy="0" r="1" gradientUnits="userSpaceOnUse" gradientTransform="translate(370.942 105.971) rotate(90) scale(29.0808 168.873)"><stop stop-color="#7C3C8F"></stop><stop offset="1" stop-color="#E72180"></stop></radialGradient><radialGradient id="paint5_radial_901_487" cx="0" cy="0" r="1" gradientUnits="userSpaceOnUse" gradientTransform="translate(370.943 105.972) rotate(90) scale(29.0808 168.873)"><stop stop-color="#7C3C8F"></stop><stop offset="1" stop-color="#E72180"></stop></radialGradient><radialGradient id="paint6_radial_901_487" cx="0" cy="0" r="1" gradientUnits="userSpaceOnUse" gradientTransform="translate(370.942 105.972) rotate(90) scale(29.0808 168.873)"><stop stop-color="#7C3C8F"></stop><stop offset="1" stop-color="#E72180"></stop></radialGradient><radialGradient id="paint7_radial_901_487" cx="0" cy="0" r="1" gradientUnits="userSpaceOnUse" gradientTransform="translate(370.944 105.972) rotate(90) scale(29.0808 168.873)"><stop stop-color="#7C3C8F"></stop><stop offset="1" stop-color="#E72180"></stop></radialGradient><radialGradient id="paint8_radial_901_487" cx="0" cy="0" r="1" gradientUnits="userSpaceOnUse" gradientTransform="translate(370.942 105.972) rotate(90) scale(29.0808 168.873)"><stop stop-color="#7C3C8F"></stop><stop offset="1" stop-color="#E72180"></stop></radialGradient></defs></svg>