<svg xmlns="http://www.w3.org/2000/svg" width="50" height="50" viewBox="0 0 50 50" fill="none"><path d="M14.75 21C14.75 18.9297 16.4297 17.25 18.5 17.25C19.8125 17.25 20.9688 17.9258 21.6406 18.9492C22.0273 19.5391 22.25 20.2422 22.25 21C22.25 21.7441 22.0352 22.4375 21.6602 23.0195C20.9961 24.0605 19.8281 24.75 18.5 24.75C16.4297 24.75 14.75 23.0703 14.75 21Z" fill="url(#paint0_linear_945_1016)"></path><path d="M28.75 21C28.75 18.9297 30.4297 17.25 32.5 17.25C34.5703 17.25 36.25 18.9297 36.25 21C36.25 23.0703 34.5703 24.75 32.5 24.75C30.4297 24.75 28.75 23.0703 28.75 21Z" fill="url(#paint1_linear_945_1016)"></path><path d="M18.9219 31.2461L18.9453 31.2676L18.9844 31.2988L19.0977 31.3906L19.4648 31.666C19.6367 31.7852 19.8477 31.9199 20.0938 32.0645C20.2969 32.1816 20.5234 32.3027 20.7734 32.4238C21.4453 32.75 22.293 33.0742 23.3008 33.2793C23.9688 33.416 24.7031 33.5 25.5 33.5C27.5039 33.5 29.1133 32.9648 30.2266 32.4238C30.7852 32.1543 31.2227 31.8809 31.5352 31.666L31.9023 31.3906L32.0156 31.2988L32.0547 31.2676L32.0781 31.2461C32.9023 30.5117 32.9805 29.2461 32.2461 28.4219C31.5156 27.6016 30.2617 27.5215 29.4375 28.2422L29.4141 28.2598L29.25 28.3809C29.0859 28.4941 28.8281 28.6582 28.4844 28.8262C28.0742 29.0234 27.5508 29.2246 26.9258 29.3535C26.4961 29.4434 26.0195 29.5 25.5 29.5C25.0781 29.5 24.6836 29.4629 24.3242 29.4004C24.1367 29.3691 23.957 29.3301 23.7852 29.2871C23.6211 29.2461 23.4648 29.1992 23.3164 29.1504C23.0156 29.0508 22.7461 28.9375 22.5156 28.8262C22.1719 28.6582 21.9141 28.4941 21.75 28.3809L21.5859 28.2598L21.5625 28.2422C20.7383 27.5215 19.4844 27.6016 18.7539 28.4219C18.3281 28.9004 18.1758 29.5273 18.2812 30.1113C18.3594 30.5352 18.5742 30.9375 18.9219 31.2461Z" fill="url(#paint2_linear_945_1016)"></path><path fill-rule="evenodd" clip-rule="evenodd" d="M6 14C6 9.0293 10.0312 5 15 5H36C38.0938 5 40.0195 5.71484 41.5508 6.91406C42.7422 7.84961 43.6914 9.07812 44.293 10.4922C44.75 11.5703 45 12.7559 45 14V35C45 37.5859 43.9102 39.918 42.1641 41.5586C40.5508 43.0723 38.3828 44 36 44H15C10.0312 44 6 39.9707 6 35V14ZM15 9C13.2539 9 11.7188 9.89648 10.8242 11.2539C10.3047 12.041 10 12.9844 10 14V35C10 35.916 10.2461 36.7754 10.6758 37.5137C11.1445 38.3164 11.832 38.9785 12.6562 39.416C13.3555 39.7891 14.1523 40 15 40H36C38.7617 40 41 37.7617 41 35V14C41 11.2383 38.7617 9 36 9H15Z" fill="url(#paint3_linear_945_1016)"></path><defs><linearGradient id="paint0_linear_945_1016" x1="25.5" y1="5" x2="25.5" y2="44" gradientUnits="userSpaceOnUse"><stop stop-color="#A964ED"></stop><stop offset="1" stop-color="#00A1FF"></stop></linearGradient><linearGradient id="paint1_linear_945_1016" x1="25.5" y1="5" x2="25.5" y2="44" gradientUnits="userSpaceOnUse"><stop stop-color="#A964ED"></stop><stop offset="1" stop-color="#00A1FF"></stop></linearGradient><linearGradient id="paint2_linear_945_1016" x1="25.5" y1="5" x2="25.5" y2="44" gradientUnits="userSpaceOnUse"><stop stop-color="#A964ED"></stop><stop offset="1" stop-color="#00A1FF"></stop></linearGradient><linearGradient id="paint3_linear_945_1016" x1="25.5" y1="5" x2="25.5" y2="44" gradientUnits="userSpaceOnUse"><stop stop-color="#A964ED"></stop><stop offset="1" stop-color="#00A1FF"></stop></linearGradient></defs></svg>