<svg xmlns="http://www.w3.org/2000/svg" width="60" height="61" viewBox="0 0 60 61" fill="none"><rect y="0.015625" width="60" height="60" rx="30" fill="url(#paint0_linear_887_457)"></rect><path d="M46.206 14.4125L46.0416 13.9772L45.6063 13.8128C44.2055 13.2838 42.7332 13.0156 41.2301 13.0156C37.927 13.0156 34.8215 14.302 32.4857 16.6377L29.1741 19.9493L21.7728 20.3083L15.5781 26.5029L20.9192 28.2042L18.9442 30.1792L20.0979 31.3329L17.5418 35.2508L24.768 42.477L28.6859 39.921L29.8396 41.0747L31.8146 39.0997L33.5159 44.4407L39.7107 38.2461L40.0696 30.8448L43.3812 27.5332C46.8117 24.1026 47.9205 18.9525 46.206 14.4125ZM19.4273 25.567L22.6671 22.3273L27.0066 22.1168L22.5589 26.5645L19.4273 25.567ZM25.0426 39.8383L20.1806 34.9763L21.5864 32.8215L27.1973 38.4325L25.0426 39.8383ZM37.6916 37.3518L34.4518 40.5916L33.4543 37.46L37.9021 33.0122L37.6916 37.3518ZM29.8396 38.1614L21.8574 30.1792L33.9423 18.0943C35.889 16.1476 38.4771 15.0756 41.2301 15.0756C42.3258 15.0756 43.4017 15.2464 44.4348 15.5838C45.6331 19.2561 44.6726 23.3284 41.9245 26.0765L29.8396 38.1614Z" fill="white"></path><path d="M39.0573 17.8672C38.2319 17.8672 37.456 18.1886 36.8724 18.7722C35.6675 19.977 35.6675 21.9373 36.8724 23.1421C37.456 23.7257 38.232 24.0472 39.0573 24.0472C39.8826 24.0472 40.6586 23.7257 41.2422 23.1421C42.447 21.9374 42.447 19.977 41.2422 18.7722C40.6586 18.1886 39.8826 17.8672 39.0573 17.8672ZM39.7856 21.6855C39.5911 21.8801 39.3324 21.9872 39.0573 21.9872C38.7823 21.9872 38.5236 21.8801 38.3291 21.6856C37.9274 21.284 37.9274 20.6305 38.3291 20.2289C38.5236 20.0344 38.7823 19.9272 39.0573 19.9272C39.3324 19.9272 39.5911 20.0344 39.7856 20.2289C40.1872 20.6305 40.1872 21.284 39.7856 21.6855Z" fill="white"></path><path d="M14 38.8073L16.3346 36.4727L17.7912 37.9293L15.4566 40.2639L14 38.8073ZM21.2094 46.0171L19.7527 44.5605L22.0873 42.2259L23.5439 43.6826L21.2094 46.0171ZM15.7179 42.7396L19.1596 39.2979L20.6162 40.7545L17.1745 44.1962L15.7179 42.7396Z" fill="white"></path><defs><linearGradient id="paint0_linear_887_457" x1="30" y1="0.015625" x2="30" y2="60.0156" gradientUnits="userSpaceOnUse"><stop stop-color="#A964ED"></stop><stop offset="1" stop-color="#00A1FF"></stop></linearGradient></defs></svg>