<svg xmlns="http://www.w3.org/2000/svg" width="42" height="42" viewBox="0 0 42 42" fill="none"><path fill-rule="evenodd" clip-rule="evenodd" d="M5.26953 0.363281C2.50811 0.363281 0.269531 2.60185 0.269531 5.36327V36.8311C0.269531 39.5926 2.5081 41.8311 5.26952 41.8311H36.7374C39.4988 41.8311 41.7374 39.5926 41.7374 36.8311V5.36328C41.7374 2.60186 39.4988 0.363281 36.7374 0.363281H5.26953ZM32.1494 15.0209H31.8495C31.7297 15.0183 31.6107 15.041 31.4996 15.0875C31.3884 15.134 31.2875 15.2035 31.2028 15.2917C31.1181 15.3798 31.0514 15.4849 31.0067 15.6006C30.962 15.7163 30.9402 15.8403 30.9427 15.9649V26.6621C30.9402 26.7868 30.962 26.9107 31.0067 27.0264C31.0514 27.1421 31.1181 27.2472 31.2028 27.3354C31.2875 27.4236 31.3884 27.493 31.4996 27.5396C31.6107 27.5861 31.7297 27.6087 31.8495 27.6061H32.1529V30.125H24.8943V27.6061H26.1045V15.8998H25.9819L22.2783 30.125H19.0137L15.3413 15.8989H15.2222V27.6043H16.4298V30.1232H10.3858V27.6043H10.6892C10.8087 27.6064 10.9273 27.5834 11.0381 27.5367C11.1488 27.4899 11.2493 27.4204 11.3337 27.3323C11.418 27.2442 11.4844 27.1392 11.5288 27.0238C11.5733 26.9083 11.595 26.7847 11.5925 26.6603V15.9613C11.595 15.8366 11.5732 15.7127 11.5285 15.597C11.4839 15.4813 11.4172 15.3762 11.3324 15.288C11.2477 15.1999 11.1468 15.1304 11.0356 15.0839C10.9245 15.0374 10.8055 15.0147 10.6857 15.0173H10.3823V12.5012H18.4042L21.2185 23.4011H21.3124L24.1518 12.5075H32.1503V15.0236L32.1494 15.0209Z" fill="white"></path></svg>