<svg xmlns="http://www.w3.org/2000/svg" width="50" height="50" viewBox="0 0 50 50" fill="none"><path fill-rule="evenodd" clip-rule="evenodd" d="M25.2949 8.95133C25.2241 8.97106 25.1239 9.01604 25.0074 9.17079L12.9146 25.245C12.6266 25.6278 12.8986 26.1763 13.3763 26.1763H16.3767C19.8918 26.1763 22.7414 29.0378 22.7414 32.5677V41.4812C22.7414 41.6823 22.7968 41.7787 22.8409 41.8354C22.8994 41.9104 23.0024 41.99 23.1466 42.0355C23.2908 42.081 23.4206 42.0748 23.5112 42.0469C23.5798 42.0257 23.6801 41.9785 23.7946 41.8134L36.0989 24.0887C36.3663 23.7035 36.0919 23.1753 35.6243 23.1753H32.4124C28.8973 23.1753 26.0477 20.3138 26.0477 16.7839V9.52103C26.0477 9.32708 25.9947 9.23049 25.95 9.17189C25.8924 9.09618 25.7923 9.01701 25.653 8.97014C25.5138 8.92326 25.3864 8.92584 25.2949 8.95133ZM20.3907 5.66835C24.0709 0.776484 31.8338 3.39008 31.8338 9.52103V16.7839C31.8338 17.1048 32.0928 17.365 32.4124 17.365H35.6243C40.7678 17.365 43.7869 23.1742 40.8455 27.4114L28.5412 45.1362C24.979 50.2678 16.9553 47.7365 16.9553 41.4812V32.5677C16.9553 32.2468 16.6962 31.9867 16.3767 31.9867H13.3763C8.12125 31.9867 5.13023 25.9532 8.29791 21.7426L20.3907 5.66835Z" fill="url(#paint0_linear_1313_18985)"></path><defs><linearGradient id="paint0_linear_1313_18985" x1="24.5" y1="3.11719" x2="24.5" y2="47.8846" gradientUnits="userSpaceOnUse"><stop stop-color="#A964ED"></stop><stop offset="1" stop-color="#00A1FF"></stop></linearGradient></defs></svg>