<svg xmlns="http://www.w3.org/2000/svg" width="249" height="232" viewBox="0 0 249 232" fill="none"><path d="M76.4177 164.638C49.525 137.746 49.5217 94.3318 76.4606 67.3929C103.44 40.4134 146.732 40.3762 173.666 67.3094C200.599 94.2426 200.562 137.535 173.542 164.474C146.643 191.453 103.27 191.491 76.4177 164.638ZM154.142 145.155C170.329 129.048 170.433 103.024 154.354 86.8643C138.558 70.9878 112.616 70.2804 96.0634 86.7522C79.7541 102.899 79.6914 128.721 95.7701 145.043C111.768 161.284 137.913 161.302 154.142 145.155Z" fill="white"></path><path d="M199.572 31.7672C178.432 10.6247 153.813 2.80027 123.916 2.80026C94.019 2.80025 65.3467 14.678 44.2064 35.8205C23.0661 56.963 11.1897 85.6383 11.1896 115.538C11.1896 135.924 15.1573 155.185 25.3711 172.434C24.3124 173.492 23.0253 174.823 21.6616 176.233C18.6753 179.321 15.3213 182.788 13.1932 184.613L6.27671 177.695C6.06825 182.907 4.4916 194.25 2.97081 205.19C1.26098 217.49 -0.378257 229.283 0.0770615 231.284L59.4462 171.908C46.3327 156.753 38.3992 136.991 38.3992 115.376C38.3992 67.6409 77.0923 28.9438 124.823 28.9438C146.435 28.9438 166.195 36.878 181.349 49.993L199.572 31.7672Z" fill="url(#paint0_linear_1161_7552)"></path><path d="M68.1947 180.671C83.3614 193.839 103.161 201.809 124.823 201.809C172.553 201.809 211.246 163.112 211.246 115.376C211.246 93.7127 203.277 73.9107 190.111 58.7423L248.847 0C249.302 2.00063 247.663 13.793 245.953 26.0935C244.432 37.0338 242.856 48.3761 242.647 53.5881L235.731 46.6709C233.602 48.4951 230.249 51.9628 227.262 55.0505C225.898 56.4605 224.611 57.7912 223.553 58.85C233.766 76.0981 237.734 95.3592 237.734 115.745C237.734 145.645 225.858 174.321 204.717 195.463C183.577 216.606 154.905 228.483 125.008 228.483C95.1111 228.483 70.4916 220.659 49.3513 199.516L68.1947 180.671Z" fill="url(#paint1_linear_1161_7552)"></path><defs><linearGradient id="paint0_linear_1161_7552" x1="124.196" y1="-3.9382" x2="124.196" y2="232.499" gradientUnits="userSpaceOnUse"><stop stop-color="#A964ED"></stop><stop offset="1" stop-color="#00A1FF"></stop></linearGradient><linearGradient id="paint1_linear_1161_7552" x1="124.196" y1="-3.9382" x2="124.196" y2="232.499" gradientUnits="userSpaceOnUse"><stop stop-color="#A964ED"></stop><stop offset="1" stop-color="#00A1FF"></stop></linearGradient></defs></svg>