<svg xmlns="http://www.w3.org/2000/svg" width="95" height="95" viewBox="0 0 95 95" fill="none"><path d="M71.3252 88.9996H68.9732L66.8252 85.9636L66.5852 86.2516V88.9996H64.7852V80.5996H66.5852V83.4556L68.9732 80.5996H71.3252L68.0012 84.5596L71.3252 88.9996Z" fill="white"></path><path d="M60.4014 89.1554C59.8334 89.1554 59.2994 89.0434 58.7994 88.8194C58.2994 88.5914 57.8594 88.2774 57.4794 87.8774C57.1034 87.4774 56.8074 87.0154 56.5914 86.4914C56.3794 85.9634 56.2734 85.3994 56.2734 84.7994C56.2734 84.1954 56.3794 83.6314 56.5914 83.1074C56.8074 82.5794 57.1034 82.1174 57.4794 81.7214C57.8594 81.3214 58.2994 81.0094 58.7994 80.7854C59.2994 80.5574 59.8334 80.4434 60.4014 80.4434C61.0814 80.4434 61.7074 80.6014 62.2794 80.9174C62.8514 81.2294 63.3254 81.6474 63.7014 82.1714L62.0934 83.0354C61.8854 82.7954 61.6354 82.6034 61.3434 82.4594C61.0514 82.3154 60.7374 82.2434 60.4014 82.2434C60.0814 82.2434 59.7794 82.3094 59.4954 82.4414C59.2154 82.5734 58.9674 82.7574 58.7514 82.9934C58.5394 83.2254 58.3734 83.4954 58.2534 83.8034C58.1334 84.1114 58.0734 84.4434 58.0734 84.7994C58.0734 85.1514 58.1334 85.4814 58.2534 85.7894C58.3734 86.0974 58.5394 86.3694 58.7514 86.6054C58.9674 86.8374 59.2154 87.0214 59.4954 87.1574C59.7794 87.2894 60.0814 87.3554 60.4014 87.3554C60.7374 87.3554 61.0514 87.2834 61.3434 87.1394C61.6354 86.9914 61.8854 86.7954 62.0934 86.5514L63.7014 87.4274C63.3254 87.9474 62.8514 88.3654 62.2794 88.6814C61.7074 88.9974 61.0814 89.1554 60.4014 89.1554Z" fill="white"></path><path d="M51.2962 89.1554C50.7282 89.1554 50.1943 89.0434 49.6943 88.8194C49.1943 88.5914 48.7543 88.2774 48.3743 87.8774C47.9943 87.4774 47.6963 87.0154 47.4803 86.4914C47.2643 85.9634 47.1562 85.3994 47.1562 84.7994C47.1562 84.1994 47.2643 83.6374 47.4803 83.1134C47.6963 82.5854 47.9943 82.1214 48.3743 81.7214C48.7543 81.3214 49.1943 81.0094 49.6943 80.7854C50.1943 80.5574 50.7282 80.4434 51.2962 80.4434C51.8682 80.4434 52.4043 80.5574 52.9043 80.7854C53.4043 81.0094 53.8443 81.3214 54.2243 81.7214C54.6043 82.1214 54.9003 82.5854 55.1123 83.1134C55.3283 83.6374 55.4363 84.1994 55.4363 84.7994C55.4363 85.3994 55.3283 85.9634 55.1123 86.4914C54.9003 87.0154 54.6043 87.4774 54.2243 87.8774C53.8443 88.2774 53.4043 88.5914 52.9043 88.8194C52.4043 89.0434 51.8682 89.1554 51.2962 89.1554ZM51.2962 87.3554C51.6162 87.3554 51.9163 87.2894 52.1963 87.1574C52.4803 87.0214 52.7303 86.8374 52.9463 86.6054C53.1623 86.3694 53.3303 86.0974 53.4503 85.7894C53.5743 85.4814 53.6362 85.1514 53.6362 84.7994C53.6362 84.4474 53.5743 84.1174 53.4503 83.8094C53.3303 83.5014 53.1623 83.2314 52.9463 82.9994C52.7303 82.7634 52.4803 82.5794 52.1963 82.4474C51.9163 82.3114 51.6162 82.2434 51.2962 82.2434C50.9762 82.2434 50.6743 82.3114 50.3903 82.4474C50.1103 82.5794 49.8623 82.7634 49.6463 82.9994C49.4303 83.2314 49.2602 83.5014 49.1362 83.8094C49.0162 84.1174 48.9562 84.4474 48.9562 84.7994C48.9562 85.1514 49.0162 85.4814 49.1362 85.7894C49.2602 86.0974 49.4303 86.3694 49.6463 86.6054C49.8623 86.8374 50.1103 87.0214 50.3903 87.1574C50.6743 87.2894 50.9762 87.3554 51.2962 87.3554Z" fill="white"></path><path d="M41.6289 88.9996V80.5996H43.4289V87.1996H46.7289V88.9996H41.6289Z" fill="white"></path><path d="M33.3672 88.9996V80.5996H35.3112L38.3832 85.7476V80.5996H40.1832V88.9996H38.2392L35.1672 83.8516V88.9996H33.3672Z" fill="white"></path><path d="M28.6895 89.1556C28.0175 89.1556 27.4235 88.9916 26.9075 88.6636C26.3955 88.3356 25.9935 87.8956 25.7015 87.3436C25.4135 86.7876 25.2695 86.1716 25.2695 85.4956V80.5996H27.0695V85.4956C27.0695 85.8356 27.1335 86.1476 27.2615 86.4316C27.3895 86.7116 27.5735 86.9356 27.8135 87.1036C28.0575 87.2716 28.3495 87.3556 28.6895 87.3556C29.0335 87.3556 29.3255 87.2736 29.5655 87.1096C29.8055 86.9416 29.9875 86.7176 30.1115 86.4376C30.2355 86.1536 30.2975 85.8396 30.2975 85.4956V80.5996H32.0975V85.4956C32.0975 86.0036 32.0155 86.4796 31.8515 86.9236C31.6875 87.3636 31.4535 87.7516 31.1495 88.0876C30.8455 88.4236 30.4855 88.6856 30.0695 88.8736C29.6535 89.0616 29.1935 89.1556 28.6895 89.1556Z" fill="white"></path><path d="M79.4727 76.9996V68.5996H81.2727V75.1996H84.5727V76.9996H79.4727Z" fill="white"></path><path d="M73.4347 68.5996H75.4627L78.5107 76.9996H76.6027L76.1227 75.6796H72.7747L72.2947 76.9996H70.3867L73.4347 68.5996ZM73.4347 73.8796H75.4627L74.4427 71.0956L73.4347 73.8796Z" fill="white"></path><path d="M63.4531 76.9996V68.5996H66.8731C67.3331 68.5996 67.7491 68.7156 68.1211 68.9476C68.4931 69.1796 68.7871 69.4916 69.0031 69.8836C69.2231 70.2716 69.3331 70.6996 69.3331 71.1676C69.3331 71.5276 69.2731 71.8636 69.1531 72.1756C69.0331 72.4836 68.8611 72.7576 68.6371 72.9976C68.4171 73.2336 68.1571 73.4236 67.8571 73.5676L69.8491 76.9996H67.7731L65.8771 73.7356H65.2531V76.9996H63.4531ZM65.2531 71.9356H66.6571C66.8171 71.9356 66.9631 71.8956 67.0951 71.8156C67.2271 71.7316 67.3331 71.6216 67.4131 71.4856C67.4931 71.3496 67.5331 71.1996 67.5331 71.0356C67.5331 70.8716 67.4931 70.7216 67.4131 70.5856C67.3331 70.4496 67.2271 70.3416 67.0951 70.2616C66.9631 70.1776 66.8171 70.1356 66.6571 70.1356H65.2531V71.9356Z" fill="white"></path><path d="M56.7852 76.9996V68.5996H62.1372V70.3996H58.5852V71.5996H61.3212V73.3996H58.5852V75.1996H62.1372V76.9996H56.7852Z" fill="white"></path><path d="M55.5883 68.5996V70.3996H53.1883V76.9996H51.3883V70.3996H48.9883V68.5996H55.5883Z" fill="white"></path><path d="M44.1496 68.5996H46.1776L49.2256 76.9996H47.3176L46.8376 75.6796H43.4896L43.0096 76.9996H41.1016L44.1496 68.5996ZM44.1496 73.8796H46.1776L45.1576 71.0956L44.1496 73.8796Z" fill="white"></path><path d="M35.2227 76.9996V68.5996H37.0227V75.1996H40.3227V76.9996H35.2227Z" fill="white"></path><path d="M28.8008 76.9996V68.5996H30.6008V75.1996H33.9008V76.9996H28.8008Z" fill="white"></path><path d="M23.6439 77.1554C23.0759 77.1554 22.5419 77.0434 22.0419 76.8194C21.5419 76.5914 21.1019 76.2774 20.7219 75.8774C20.3419 75.4774 20.0439 75.0154 19.8279 74.4914C19.6119 73.9634 19.5039 73.3994 19.5039 72.7994C19.5039 72.1994 19.6119 71.6374 19.8279 71.1134C20.0439 70.5854 20.3419 70.1214 20.7219 69.7214C21.1019 69.3214 21.5419 69.0094 22.0419 68.7854C22.5419 68.5574 23.0759 68.4434 23.6439 68.4434C24.2159 68.4434 24.7519 68.5574 25.2519 68.7854C25.7519 69.0094 26.1919 69.3214 26.5719 69.7214C26.9519 70.1214 27.2479 70.5854 27.4599 71.1134C27.6759 71.6374 27.7839 72.1994 27.7839 72.7994C27.7839 73.3994 27.6759 73.9634 27.4599 74.4914C27.2479 75.0154 26.9519 75.4774 26.5719 75.8774C26.1919 76.2774 25.7519 76.5914 25.2519 76.8194C24.7519 77.0434 24.2159 77.1554 23.6439 77.1554ZM23.6439 75.3554C23.9639 75.3554 24.2639 75.2894 24.5439 75.1574C24.8279 75.0214 25.0779 74.8374 25.2939 74.6054C25.5099 74.3694 25.6779 74.0974 25.7979 73.7894C25.9219 73.4814 25.9839 73.1514 25.9839 72.7994C25.9839 72.4474 25.9219 72.1174 25.7979 71.8094C25.6779 71.5014 25.5099 71.2314 25.2939 70.9994C25.0779 70.7634 24.8279 70.5794 24.5439 70.4474C24.2639 70.3114 23.9639 70.2434 23.6439 70.2434C23.3239 70.2434 23.0219 70.3114 22.7379 70.4474C22.4579 70.5794 22.2099 70.7634 21.9939 70.9994C21.7779 71.2314 21.6079 71.5014 21.4839 71.8094C21.3639 72.1174 21.3039 72.4474 21.3039 72.7994C21.3039 73.1514 21.3639 73.4814 21.4839 73.7894C21.6079 74.0974 21.7779 74.3694 21.9939 74.6054C22.2099 74.8374 22.4579 75.0214 22.7379 75.1574C23.0219 75.2894 23.3239 75.3554 23.6439 75.3554Z" fill="white"></path><path d="M15.4288 77.1554C14.8608 77.1554 14.3268 77.0434 13.8268 76.8194C13.3268 76.5914 12.8868 76.2774 12.5068 75.8774C12.1308 75.4774 11.8348 75.0154 11.6188 74.4914C11.4068 73.9634 11.3008 73.3994 11.3008 72.7994C11.3008 72.1954 11.4068 71.6314 11.6188 71.1074C11.8348 70.5794 12.1308 70.1174 12.5068 69.7214C12.8868 69.3214 13.3268 69.0094 13.8268 68.7854C14.3268 68.5574 14.8608 68.4434 15.4288 68.4434C16.1088 68.4434 16.7348 68.6014 17.3068 68.9174C17.8788 69.2294 18.3528 69.6474 18.7288 70.1714L17.1208 71.0354C16.9128 70.7954 16.6628 70.6034 16.3708 70.4594C16.0788 70.3154 15.7648 70.2434 15.4288 70.2434C15.1088 70.2434 14.8068 70.3094 14.5228 70.4414C14.2428 70.5734 13.9948 70.7574 13.7788 70.9934C13.5668 71.2254 13.4008 71.4954 13.2808 71.8034C13.1608 72.1114 13.1008 72.4434 13.1008 72.7994C13.1008 73.1514 13.1608 73.4814 13.2808 73.7894C13.4008 74.0974 13.5668 74.3694 13.7788 74.6054C13.9948 74.8374 14.2428 75.0214 14.5228 75.1574C14.8068 75.2894 15.1088 75.3554 15.4288 75.3554C15.7648 75.3554 16.0788 75.2834 16.3708 75.1394C16.6628 74.9914 16.9128 74.7954 17.1208 74.5514L18.7288 75.4274C18.3528 75.9474 17.8788 76.3654 17.3068 76.6814C16.7348 76.9974 16.1088 77.1554 15.4288 77.1554Z" fill="white"></path><path d="M33.5417 28.3204C31.8054 31.3276 31.11 34.8238 31.5632 38.2666C32.0165 41.7093 33.5931 44.9064 36.0485 47.3618C38.5039 49.8172 41.701 51.3938 45.1437 51.8471C48.5865 52.3003 52.0827 51.6049 55.0899 49.8686C58.0972 48.1324 60.4475 45.4524 61.7764 42.2442C63.1053 39.036 63.3384 35.479 62.4397 32.1249C61.5409 28.7707 59.5605 25.8068 56.8056 23.6929C54.0507 21.579 50.6752 20.4331 47.2027 20.4331L47.2027 36.2076L33.5417 28.3204Z" fill="white"></path><circle cx="47.2039" cy="36.2074" r="22.309" transform="rotate(-150 47.2039 36.2074)" stroke="white" stroke-width="4"></circle></svg>