<svg xmlns="http://www.w3.org/2000/svg" width="122" height="31" viewBox="0 0 122 31" fill="none"><path d="M117.798 22.5973C117.037 22.5973 116.368 22.4163 115.788 22.0543C115.209 21.6923 114.751 21.2217 114.413 20.6425V26.2716H112.422V12.95H114.178V14.6514C114.54 14.0843 115.01 13.6318 115.589 13.2939C116.169 12.956 116.814 12.7871 117.526 12.7871C118.178 12.7871 118.775 12.9198 119.318 13.1853C119.861 13.4387 120.332 13.7947 120.73 14.2532C121.128 14.7117 121.436 15.2366 121.653 15.8279C121.882 16.4071 121.997 17.0225 121.997 17.6741C121.997 18.5791 121.816 19.4057 121.454 20.1538C121.104 20.9019 120.609 21.4992 119.97 21.9457C119.342 22.3801 118.618 22.5973 117.798 22.5973ZM117.146 20.8959C117.568 20.8959 117.948 20.8054 118.286 20.6244C118.636 20.4434 118.932 20.2021 119.173 19.9004C119.427 19.5987 119.62 19.2548 119.752 18.8687C119.885 18.4826 119.951 18.0844 119.951 17.6741C119.951 17.2397 119.879 16.8294 119.734 16.4433C119.589 16.0572 119.378 15.7193 119.101 15.4297C118.835 15.1401 118.522 14.9108 118.16 14.7419C117.81 14.573 117.423 14.4885 117.001 14.4885C116.748 14.4885 116.482 14.5368 116.205 14.6333C115.927 14.7298 115.668 14.8626 115.426 15.0315C115.185 15.2004 114.974 15.3995 114.793 15.6288C114.612 15.8581 114.485 16.0994 114.413 16.3528V18.8325C114.582 19.2186 114.805 19.5686 115.083 19.8823C115.36 20.184 115.68 20.4313 116.042 20.6244C116.404 20.8054 116.772 20.8959 117.146 20.8959Z" fill="white"></path><path d="M101.516 19.647C101.516 19.0437 101.685 18.5188 102.022 18.0723C102.372 17.6138 102.849 17.2638 103.452 17.0225C104.056 16.7691 104.756 16.6424 105.552 16.6424C105.974 16.6424 106.403 16.6726 106.837 16.7329C107.283 16.7932 107.676 16.8898 108.014 17.0225V16.4252C108.014 15.7615 107.814 15.2427 107.416 14.8686C107.018 14.4945 106.445 14.3075 105.697 14.3075C105.166 14.3075 104.665 14.404 104.194 14.5971C103.724 14.7781 103.223 15.0375 102.692 15.3754L102.022 14.036C102.65 13.6137 103.277 13.2999 103.905 13.0948C104.544 12.8897 105.214 12.7871 105.914 12.7871C107.181 12.7871 108.176 13.125 108.9 13.8007C109.636 14.4644 110.004 15.4116 110.004 16.6424V20.1719C110.004 20.4012 110.041 20.5641 110.113 20.6606C110.198 20.7571 110.336 20.8114 110.529 20.8235V22.4163C110.348 22.4525 110.185 22.4766 110.041 22.4887C109.896 22.5007 109.775 22.5068 109.679 22.5068C109.256 22.5068 108.937 22.4042 108.719 22.1991C108.502 21.9939 108.376 21.7526 108.339 21.4751L108.285 20.9321C107.875 21.463 107.35 21.8733 106.71 22.1629C106.071 22.4525 105.425 22.5973 104.774 22.5973C104.146 22.5973 103.585 22.4706 103.09 22.2172C102.596 21.9517 102.209 21.5957 101.932 21.1493C101.654 20.7028 101.516 20.2021 101.516 19.647ZM107.543 20.2262C107.688 20.0693 107.802 19.9125 107.887 19.7556C107.971 19.5987 108.014 19.46 108.014 19.3393V18.2533C107.676 18.1206 107.32 18.024 106.946 17.9637C106.572 17.8913 106.204 17.8551 105.842 17.8551C105.118 17.8551 104.526 17.9999 104.068 18.2895C103.621 18.5791 103.398 18.9773 103.398 19.4841C103.398 19.7616 103.47 20.0271 103.615 20.2805C103.772 20.5339 103.989 20.739 104.267 20.8959C104.556 21.0528 104.912 21.1312 105.335 21.1312C105.769 21.1312 106.185 21.0467 106.584 20.8778C106.982 20.7089 107.302 20.4917 107.543 20.2262Z" fill="white"></path><path d="M99.2114 12.9492H101.112L97.1299 22.4155H95.4285L93.7271 18.1439L92.0257 22.4155H90.3243L86.3242 12.9492H88.2247L91.2655 20.4788L92.6049 16.9855L90.9759 12.9673H92.6592L93.7271 15.9176L94.7769 12.9673H96.4602L94.8493 16.9855L96.1887 20.4788L99.2114 12.9492Z" fill="white"></path><path d="M84.4856 12.5878C84.365 12.4551 84.19 12.3163 83.9607 12.1715C83.7315 12.0146 83.46 11.8698 83.1462 11.7371C82.8325 11.6044 82.4946 11.4958 82.1326 11.4113C81.7706 11.3268 81.3966 11.2846 81.0104 11.2846C80.1658 11.2846 79.5383 11.4415 79.128 11.7552C78.7178 12.0689 78.5126 12.5033 78.5126 13.0584C78.5126 13.4687 78.6273 13.7945 78.8565 14.0358C79.0858 14.2651 79.4357 14.4581 79.9063 14.615C80.3769 14.7719 80.9682 14.9408 81.6801 15.1218C82.5489 15.3269 83.3031 15.5743 83.9426 15.8639C84.5822 16.1414 85.0709 16.5155 85.4087 16.9861C85.7466 17.4567 85.9155 18.0781 85.9155 18.8504C85.9155 19.502 85.7949 20.0631 85.5535 20.5337C85.3122 21.0043 84.9743 21.3904 84.5399 21.6921C84.1055 21.9817 83.6048 22.1989 83.0376 22.3437C82.4705 22.4764 81.8611 22.5428 81.2095 22.5428C80.57 22.5428 79.9305 22.4764 79.2909 22.3437C78.6635 22.2109 78.0601 22.0179 77.4809 21.7645C76.9138 21.499 76.3889 21.1792 75.9062 20.8052L76.8293 19.0676C76.9862 19.2244 77.2094 19.3994 77.499 19.5925C77.8007 19.7735 78.1446 19.9484 78.5307 20.1174C78.9289 20.2863 79.3573 20.4311 79.8158 20.5518C80.2864 20.6604 80.7631 20.7147 81.2457 20.7147C82.0542 20.7147 82.6696 20.5759 83.0919 20.2984C83.5263 20.0088 83.7435 19.5985 83.7435 19.0676C83.7435 18.6332 83.6048 18.2893 83.3272 18.0359C83.0497 17.7704 82.6455 17.5472 82.1145 17.3662C81.5836 17.1852 80.9501 17.0042 80.214 16.8232C79.3694 16.5939 78.6635 16.3466 78.0963 16.0811C77.5292 15.8036 77.1008 15.4536 76.8112 15.0313C76.5337 14.5969 76.3949 14.0479 76.3949 13.3842C76.3949 12.5395 76.6001 11.8276 77.0103 11.2484C77.4206 10.6571 77.9757 10.2167 78.6755 9.92711C79.3875 9.62544 80.1839 9.47461 81.0647 9.47461C81.6439 9.47461 82.193 9.54098 82.7118 9.67371C83.2307 9.79438 83.7134 9.96331 84.1598 10.1805C84.6184 10.3977 85.0347 10.6451 85.4087 10.9226L84.4856 12.5878Z" fill="white"></path><path d="M70.1345 22.5973C69.3864 22.5973 68.7167 22.4706 68.1254 22.2172C67.5342 21.9517 67.0213 21.5897 66.5869 21.1312C66.1646 20.6727 65.8388 20.1538 65.6095 19.5746C65.3803 18.9833 65.2656 18.3559 65.2656 17.6922C65.2656 17.0285 65.3803 16.4011 65.6095 15.8098C65.8388 15.2185 66.1646 14.6997 66.5869 14.2532C67.0213 13.7947 67.5342 13.4387 68.1254 13.1853C68.7287 12.9198 69.3984 12.7871 70.1345 12.7871C70.8706 12.7871 71.5342 12.9198 72.1255 13.1853C72.7288 13.4387 73.2417 13.7947 73.664 14.2532C74.0984 14.6997 74.4302 15.2185 74.6595 15.8098C74.8888 16.4011 75.0034 17.0285 75.0034 17.6922C75.0034 18.3559 74.8888 18.9833 74.6595 19.5746C74.4302 20.1538 74.0984 20.6727 73.664 21.1312C73.2417 21.5897 72.7288 21.9517 72.1255 22.2172C71.5342 22.4706 70.8706 22.5973 70.1345 22.5973ZM67.3109 17.7103C67.3109 18.3136 67.4376 18.8566 67.691 19.3393C67.9444 19.822 68.2823 20.2021 68.7046 20.4796C69.1269 20.7571 69.6036 20.8959 70.1345 20.8959C70.6534 20.8959 71.124 20.7571 71.5463 20.4796C71.9807 20.19 72.3246 19.8039 72.578 19.3212C72.8314 18.8265 72.9581 18.2835 72.9581 17.6922C72.9581 17.0889 72.8314 16.5459 72.578 16.0632C72.3246 15.5805 71.9807 15.2004 71.5463 14.9229C71.124 14.6333 70.6534 14.4885 70.1345 14.4885C69.6036 14.4885 69.1269 14.6333 68.7046 14.9229C68.2823 15.2125 67.9444 15.5986 67.691 16.0813C67.4376 16.5519 67.3109 17.0949 67.3109 17.7103Z" fill="white"></path><path d="M64.6065 14.6674C63.8343 14.6795 63.1465 14.8544 62.5431 15.1923C61.9519 15.5302 61.5296 16.0068 61.2762 16.6222V22.4142H59.2852V12.9479H61.1314V15.0656C61.4571 14.414 61.8855 13.8952 62.4164 13.509C62.9474 13.1108 63.5085 12.8936 64.0997 12.8574C64.2204 12.8574 64.3169 12.8574 64.3893 12.8574C64.4738 12.8574 64.5462 12.8635 64.6065 12.8755V14.6674Z" fill="white"></path><path d="M52.8152 22.5973C52.0792 22.5973 51.4095 22.4706 50.8061 22.2172C50.2149 21.9517 49.7021 21.5957 49.2677 21.1493C48.8333 20.6908 48.4954 20.1719 48.2541 19.5927C48.0248 19.0014 47.9102 18.374 47.9102 17.7103C47.9102 16.8174 48.1153 16.0029 48.5256 15.2668C48.9358 14.5187 49.509 13.9214 50.245 13.4749C50.9811 13.0164 51.8439 12.7871 52.8333 12.7871C53.8228 12.7871 54.6735 13.0164 55.3854 13.4749C56.1094 13.9214 56.6705 14.5126 57.0687 15.2487C57.4669 15.9848 57.666 16.7751 57.666 17.6198C57.666 17.7646 57.66 17.9034 57.6479 18.0361C57.6359 18.1568 57.6238 18.2593 57.6117 18.3438H50.0278C50.064 18.8989 50.2149 19.3876 50.4803 19.8099C50.7579 20.2202 51.1078 20.546 51.5301 20.7873C51.9525 21.0166 52.405 21.1312 52.8876 21.1312C53.4186 21.1312 53.9193 20.9985 54.3899 20.733C54.8726 20.4675 55.1984 20.1176 55.3673 19.6832L57.0687 20.1719C56.8636 20.6304 56.5499 21.0467 56.1275 21.4208C55.7173 21.7828 55.2286 22.0724 54.6614 22.2896C54.0943 22.4947 53.4789 22.5973 52.8152 22.5973ZM49.9736 17.0225H55.6931C55.6569 16.4795 55.5001 16.0029 55.2225 15.5926C54.9571 15.1703 54.6132 14.8445 54.1908 14.6152C53.7806 14.3739 53.322 14.2532 52.8152 14.2532C52.3205 14.2532 51.862 14.3739 51.4396 14.6152C51.0294 14.8445 50.6915 15.1703 50.426 15.5926C50.1606 16.0029 50.0097 16.4795 49.9736 17.0225Z" fill="white"></path><path d="M36.7539 20.8588L44.5188 11.3563H36.9349V9.56445H46.9261V11.121L39.3603 20.6235H46.9442V22.4154H36.7539V20.8588Z" fill="white"></path><path d="M9.98031 21.5037C6.46803 17.9915 6.4676 12.3215 9.98592 8.80315C13.5095 5.27953 19.1636 5.27468 22.6812 8.79225C26.1988 12.3098 26.1939 17.9639 22.665 21.4823C19.152 25.0059 13.4873 25.0107 9.98031 21.5037ZM20.1313 18.9591C22.2455 16.8556 22.259 13.4567 20.159 11.3462C18.0961 9.27266 14.7079 9.18027 12.5461 11.3315C10.416 13.4404 10.4079 16.8128 12.5078 18.9445C14.5971 21.0657 18.0119 21.068 20.1313 18.9591Z" fill="white"></path><path d="M26.0648 4.1489C23.3039 1.38762 20.0885 0.365725 16.1838 0.365724C12.2792 0.365723 8.5345 1.91699 5.7735 4.67827C3.01251 7.43955 1.46141 11.1847 1.46141 15.0897C1.46141 17.7522 1.9796 20.2677 3.31355 22.5204C3.17528 22.6587 3.00718 22.8325 2.82908 23.0166C2.43905 23.4199 2.00101 23.8728 1.72308 24.111L0.819759 23.2076C0.792534 23.8883 0.586618 25.3697 0.387998 26.7985C0.164688 28.405 -0.0494016 29.9451 0.0100645 30.2064L7.76388 22.4518C6.0512 20.4725 5.01507 17.8915 5.01507 15.0685C5.01507 8.83413 10.0685 3.78015 16.3023 3.78015C19.125 3.78015 21.7056 4.81639 23.6847 6.52925L26.0648 4.1489Z" fill="white"></path><path d="M8.90645 23.5963C10.8873 25.316 13.4732 26.3569 16.3023 26.3569C22.536 26.3569 27.5895 21.3029 27.5895 15.0685C27.5895 12.2392 26.5487 9.65299 24.8291 7.67194L32.5002 0C32.5597 0.261289 32.3456 1.80142 32.1223 3.40789C31.9237 4.83674 31.7178 6.31808 31.6905 6.99879L30.7872 6.09537C30.5093 6.33363 30.0712 6.78652 29.6812 7.18979C29.5031 7.37393 29.335 7.54772 29.1967 7.68601C30.5307 9.93867 31.0489 12.4542 31.0489 15.1167C31.0489 19.0218 29.4978 22.7669 26.7368 25.5281C23.9758 28.2894 20.2311 29.8407 16.3265 29.8407C12.4218 29.8407 9.20644 28.8188 6.44545 26.0575L8.90645 23.5963Z" fill="white"></path></svg>