<svg xmlns="http://www.w3.org/2000/svg" xmlns:xlink="http://www.w3.org/1999/xlink" id="Layer_1" x="0px" y="0px" viewBox="0 0 191.2400055 76.4100037" style="enable-background:new 0 0 191.2400055 76.4100037;" xml:space="preserve"><style type="text/css">	.st0{fill:#DB222A;}	.st1{fill:#FFFFFF;}</style><g>	<path class="st0" d="M8.9761429,20.4850216l-5.4638596,3.3466129v28.7535591l5.4638596-3.9544678V20.4850216z   M9.6181459,48.9927101c-0.1024466-0.06147-5.5389872,3.8929977-5.4638591,3.9544678l19.4103622,11.3511696v-6.6932297  L9.6181459,48.9927101z"></path>	<path class="st0" d="M39.0273705,20.4850216v28.1457081l5.4638596,3.9544678V23.8316345L39.0273705,20.4850216z   M38.4058571,48.9927101c-2.7933998,1.7620926-13.8850327,8.6124077-13.8850327,8.6124077v6.6932297l19.2874222-11.3238487  C43.9243546,52.9130287,38.5083046,48.9927101,38.4058571,48.9927101z"></path>	<path class="st1" d="M24.9920826,12.1116562v7.0005703l6.0239048,3.9271488v6.6932278l5.8668175,3.1963558V19.5425053  L24.9920826,12.1116562z"></path>	<path class="st1" d="M10.8816643,19.562994l0.1434259,13.0859432l5.2316465-2.7319298l0.0546379-6.8298244l7.2327843-4.0978947  v-6.8776321L10.8816643,19.562994z"></path>	<path class="st1" d="M36.7120628,35.237442l-12.5190697-6.5361423L10.8816643,35.237442l0.0751276,11.4126358l13.3932867,8.0660248  l12.4439392-7.9089394L36.7120628,35.237442z"></path></g><g>	<path class="st1" d="M79.5644531,47.0917664c-0.4956055,0.0576172-0.9897461-0.0664062-1.4042969-0.3408203  c-0.2802734-0.4091797-0.402832-0.9052734-0.34375-1.453125V30.8476257c0-0.6699219-0.5449219-1.2148438-1.2143555-1.2148438  c-0.6699219,0-1.2148438,0.5449219-1.2148438,1.2148438l0.0019531,14.4511719  c-0.1000977,1.1484375,0.2685547,2.3105469,1.0756836,3.2539062c0.8081055,0.6669922,1.8051758,1.0234375,2.8413086,1.0234375  c0.1210938,0,0.2426758-0.0048828,0.3642578-0.0146484L80.25,49.4687195l-0.0283203-0.1103516  c0.09375-0.0537109,0.1801758-0.1201172,0.2583008-0.1982422c0.2294922-0.2294922,0.3554688-0.5351562,0.3544922-0.859375  c-0.0004883-0.3242188-0.1274414-0.6289062-0.3569336-0.8583984C80.2480469,47.2138367,79.9609375,47.117157,79.5644531,47.0917664  z"></path>	<path class="st1" d="M72.3950195,43.4599304c0-2.0634766-0.6728516-3.5244141-2.0024414-4.3544922  c0.7290039-0.7910156,1.1010742-1.8623047,0.9926758-2.9155273l-0.0014648-0.6884766  c0.0927734-1.2246094-0.3310547-2.4448242-1.1987305-3.3833008c-0.921875-0.8173828-2.1503906-1.230957-3.3486328-1.1469727  l-7.0439453,0.0043945c-0.1069336-0.0146484-0.2172852-0.0136719-0.328125,0.0029297  c-0.6176758,0.0957031-1.043457,0.6767578-0.9541016,1.21875l0.0058594,16.0185547  c-0.0166016,0.1083984-0.0175781,0.2177734-0.0024414,0.328125c0.0410156,0.3007812,0.1972656,0.5664062,0.4389648,0.75  c0.2314453,0.1748047,0.5166016,0.2539062,0.8017578,0.2236328l7.3686523-0.0039062  c0.203125,0.0263672,0.4072266,0.0400391,0.6103516,0.0400391c0.2001953,0,0.3999023-0.0136719,0.597168-0.0390625  c1.2446289-0.1601562,2.3520508-0.7939453,3.1186523-1.7871094c0.7670898-0.9921875,1.1015625-2.2246094,0.9458008-3.4052734  V43.4599304z M69.972168,45.297821c-0.1118164,0.6083984-0.4536133,1.1357422-0.9624023,1.4863281  c-0.5083008,0.3496094-1.1210938,0.4824219-1.8217773,0.3613281h-6.2485352v-6.3613281l6.2983398-0.0029297  c0.7636719-0.078125,1.5444336,0.1591797,2.0717773,0.5820312c0.4921875,0.5927734,0.7255859,1.3417969,0.65625,2.1533203  l0.0078125,0.9511719C70.0234375,44.7431335,70.0229492,45.0224304,69.972168,45.297821z M60.9394531,38.35495v-4.9545898  l5.9296875-0.0009766c0.5957031-0.0444336,1.1821289,0.152832,1.5854492,0.4863281  c0.3769531,0.4350586,0.5605469,1.0131836,0.5014648,1.6347656l0.0019531,0.7709961  c0.0527344,0.5849609-0.121582,1.1577148-0.4458008,1.5639648c-0.3837891,0.3618164-0.909668,0.5449219-1.4716797,0.4995117  H60.9394531z M59.5411377,31.4729309h-0.000061l-0.000061-0.0003052L59.5411377,31.4729309z M59.0087891,48.4755554  L59.0087891,48.4755554L59.0087891,48.4755554L59.0087891,48.4755554z"></path>	<path class="st1" d="M136.5166016,31.8583679c-0.1904297-0.5307617-0.6962891-0.8867188-1.3125-0.8867188  c-0.0019531,0-0.0048828,0-0.0068359,0c-0.5839844-0.0288086-1.1240234,0.3417969-1.2910156,0.8608398l-6.7246094,15.9223633  c-0.0361328,0.0664062-0.0654297,0.1367188-0.0898438,0.2138672c-0.1816406,0.5976562,0.140625,1.2314453,0.7226562,1.4404297  c0.0917969,0.0478516,0.1894531,0.0820312,0.2900391,0.1025391c0.609375,0.1279297,1.2148438-0.2675781,1.3134766-0.7871094  l1.6748047-3.9824219h8.2548828l1.7148438,3.9453125c0.0283203,0.1113281,0.0722656,0.2158203,0.1298828,0.3115234  c0.15625,0.2578125,0.4033203,0.4384766,0.6953125,0.5097656c0.0878906,0.0214844,0.1777344,0.0322266,0.2666016,0.0322266  c0.1816406,0,0.3603516-0.0439453,0.5224609-0.1308594c0.0712891-0.0244141,0.140625-0.0566406,0.2099609-0.0976562  c0.5400391-0.3242188,0.7167969-1.0292969,0.4248047-1.5117188L136.5166016,31.8583679z M138.2949219,42.3476257h-6.2216797  l3.1103516-7.2988281L138.2949219,42.3476257z"></path>	<path class="st1" d="M173.6621094,44.4023132c-0.3173828-0.0322266-0.6416016,0.0742188-0.9570312,0.3486328  c-0.1884766,0.2275391-0.3017578,0.5029297-0.3300781,0.8056641c-0.0341797,0.4697266-0.2958984,0.8955078-0.6445312,1.1103516  c-0.7070312,0.3125-1.4902344,0.4462891-2.2929688,0.3984375l-2.3193359,0.0029297  c-0.828125,0.0810547-1.6455078-0.1357422-2.3164062-0.6220703c-0.4882812-0.6601562-0.7109375-1.4716797-0.6259766-2.3398438  v-0.4980469l9.3408203-0.0048828c0.1083984,0.0136719,0.2158203,0.015625,0.3339844-0.0019531  c0.6103516-0.0966797,1.0302734-0.6728516,0.9414062-1.2080078l-0.0029297-1.3105469  c0.1474609-1.4658203-0.3066406-2.9570312-1.3144531-4.15625c-1.1337891-0.9335938-2.6269531-1.3867188-4.0371094-1.2485352  l-2.2148438,0.0029297c-1.4648438-0.1572266-2.9697266,0.2949219-4.1708984,1.3134766  c-0.9404297,1.140625-1.3945312,2.6391602-1.2490234,4.0610352l0.0019531,3.0361328  c-0.1425781,1.4638672,0.3125,2.953125,1.3173828,4.15625c1.0185547,0.8291016,2.2695312,1.2705078,3.5380859,1.2705078  c0.1699219,0,0.3398438-0.0078125,0.5087891-0.0234375l2.2373047-0.0009766  c1.3183594,0.0839844,2.6269531-0.2216797,3.8183594-0.9111328c0.9433594-0.6855469,1.5185547-1.7451172,1.5693359-2.8398438  c0.0664062-0.3466797-0.0292969-0.6992188-0.2802734-0.9873047  C174.2714844,44.5068054,173.9453125,44.3798523,173.6621094,44.4023132z M164.8046875,38.6659851  c0.6533203-0.4907227,1.4912109-0.7143555,2.3007812-0.6079102l2.3857422,0.0239258  c0.8212891-0.090332,1.6337891,0.1293945,2.296875,0.6171875c0.4677734,0.6621094,0.6728516,1.46875,0.5742188,2.3339844v0.1464844  h-8.1884766l-0.0009766-0.1982422C164.0869141,40.1532898,164.3105469,39.3329773,164.8046875,38.6659851z M173.7722778,43.1069641  c0.000061,0,0.000061-0.000061,0.0001221-0.000061l0.000061,0.0004883L173.7722778,43.1069641z"></path>	<path class="st1" d="M157.0185547,36.9047546c-1.1308594-0.9350586-2.6152344-1.3896484-4.0273438-1.2490234l-1.0146484,0.0004883  c-1.0683594-0.0380859-2.1230469,0.1367188-3.1240234,0.5209961c-0.3935547,0.1523438-0.7558594,0.3598633-1.0800781,0.6152344  c-0.0351562-0.6357422-0.5644531-1.1445312-1.2089844-1.1459961c-0.0009766,0-0.0019531,0-0.0029297,0  c-0.6679688,0-1.2128906,0.5424805-1.2148438,1.2124023l0.0068359,16.7856445  c-0.0175781,0.1064453-0.0185547,0.2167969-0.0039062,0.3330078c0.0820312,0.5878906,0.609375,1.0244141,1.1894531,0.9765625  c0.0537109,0.0078125,0.109375,0.0126953,0.1640625,0.0126953c0.0839844,0,0.1679688-0.0097656,0.2480469-0.0283203  c0.5898438-0.1328125,0.96875-0.7060547,0.8701172-1.2958984v-4.1699219l5.1269531-0.0019531  c1.4716797,0.1337891,2.9599609-0.3466797,4.1337891-1.3652344c0.9589844-1.1240234,1.4355469-2.6142578,1.3095703-4.0439453  l-0.0019531-3.0078125C158.5195312,39.5800476,158.0429688,38.0898132,157.0185547,36.9047546z M148.7304688,38.714325  c0.9775391-0.4785156,2.0673828-0.6938477,3.1835938-0.6293945l1.0839844-0.0029297  c0.8310547-0.0878906,1.6357422,0.1323242,2.3007812,0.6191406c0.4853516,0.6669922,0.7050781,1.4833984,0.6171875,2.3544922  l0.0029297,3.0888672c0.0820312,0.8242188-0.1386719,1.6435547-0.6210938,2.3154297  c-0.6660156,0.4824219-1.4804688,0.7001953-2.3525391,0.6171875h-5.1777344l-0.0859375-6.6748047  C147.7373047,39.6903992,148.140625,39.0536804,148.7304688,38.714325z M145.8441772,53.9079895c0,0.000061,0,0.000061,0,0.0001221  l-0.0004272,0.000061L145.8441772,53.9079895z"></path>	<path class="st1" d="M183.9482422,42.4794617l3.9199219-4.8232422c0.0869141-0.0795898,0.1591797-0.171875,0.2177734-0.2753906  c0.1455078-0.2597656,0.1806641-0.5605469,0.0996094-0.8466797c-0.0722656-0.2558594-0.2304688-0.4726562-0.4492188-0.6191406  c-0.078125-0.0795898-0.1669922-0.1464844-0.265625-0.1992188c-0.5410156-0.2905273-1.2158203-0.0874023-1.4541016,0.3745117  l-3.5849609,4.4223633l-3.4042969-4.3686523c-0.0380859-0.0629883-0.0849609-0.1245117-0.1425781-0.1860352  c-0.4277344-0.4477539-1.1337891-0.4775391-1.5986328-0.0751953c-0.0742188,0.050293-0.1416016,0.1079102-0.1982422,0.1699219  c-0.2060547,0.2226562-0.3125,0.512207-0.3007812,0.8154297c0.0117188,0.3027344,0.140625,0.5830078,0.3076172,0.7280273  l3.6748047,4.7387695l-3.9755859,5.0615234c-0.0751953,0.0722656-0.140625,0.1533203-0.1894531,0.2373047  c-0.1591797,0.2626953-0.2050781,0.5712891-0.1318359,0.8681641c0.0673828,0.2685547,0.2246094,0.4990234,0.4472656,0.6572266  c0.0800781,0.0859375,0.1728516,0.1572266,0.2753906,0.2138672c0.1679688,0.0917969,0.3535156,0.1396484,0.5400391,0.1396484  c0.1054688,0,0.2109375-0.015625,0.3154297-0.0458984c0.2880859-0.0830078,0.5263672-0.2744141,0.625-0.4677734  l3.6777344-4.6289062l3.5361328,4.5283203c0.0595703,0.1064453,0.1347656,0.2011719,0.2216797,0.2783203  c0.2226562,0.2041016,0.5078125,0.2929688,0.8164062,0.2978516c0.2802734-0.0126953,0.5390625-0.125,0.7382812-0.3173828  c0.0712891-0.0498047,0.1367188-0.1064453,0.1943359-0.1699219c0.4169922-0.4589844,0.3828125-1.1708984-0.0185547-1.5244141  L183.9482422,42.4794617z"></path>	<path class="st1" d="M94.1259766,36.926239c-1.1513672-0.9477539-2.6044922-1.3901367-4.0380859-1.2480469l-2.2163086,0.0029297  c-1.4726562-0.1567383-2.9682617,0.2993164-4.1708984,1.3149414c-0.9477539,1.1586914-1.3896484,2.6181641-1.2470703,4.0595703  l0.0024414,3.1064453c-0.1401367,1.4824219,0.3022461,2.9326172,1.2451172,4.0830078l0.0722656,0.0722656  c1.0214844,0.8261719,2.2744141,1.2675781,3.5751953,1.2675781c0.1660156,0,0.3330078-0.0078125,0.5004883-0.0224609  l2.1948242-0.0693359c1.4750977,0.1289062,2.9658203-0.3476562,4.1508789-1.3720703  c0.9443359-1.1513672,1.3862305-2.6015625,1.2470703-4.0371094l-0.0024414-3.0019531  C95.5839844,39.5966492,95.1416016,38.1454773,94.1259766,36.926239z M84.7460938,41.0820007  c-0.0244141-0.6445312,0.0761719-1.2783203,0.2929688-1.8701172c0.15625-0.3886719,0.4682617-0.7006836,0.8413086-0.8510742  c0.6010742-0.2182617,1.2285156-0.3095703,1.8935547-0.2758789l2.3217773-0.0029297  c0.8237305-0.0859375,1.6381836,0.1333008,2.3041992,0.6230469c0.5048828,0.6591797,0.7392578,1.4755859,0.6582031,2.3505859  l0.0029297,3.1025391c0.0859375,0.8251953-0.1337891,1.6435547-0.6196289,2.3134766  c-0.6674805,0.4814453-1.4814453,0.7011719-2.3535156,0.6171875l-2.3173828,0.0019531  c-0.8295898,0.0839844-1.6459961-0.1386719-2.3173828-0.6210938c-0.484375-0.6621094-0.7036133-1.4716797-0.6186523-2.2890625  l0.0039062-0.0332031L84.7460938,41.0820007z"></path>	<path class="st1" d="M120.1962891,41.6943054l4.5888672-3.9482422c0.0732422-0.0512695,0.1396484-0.109375,0.1933594-0.1694336  c0.2070312-0.2260742,0.3134766-0.5195312,0.2988281-0.8256836c-0.0126953-0.2861328-0.1298828-0.5512695-0.3300781-0.753418  c-0.0429688-0.0576172-0.0917969-0.1108398-0.1464844-0.159668c-0.2265625-0.203125-0.5351562-0.3037109-0.8193359-0.2890625  c-0.3027344,0.0161133-0.5810547,0.1494141-0.7382812,0.3295898l-6.0810547,5.222168V30.8476257  c0-0.6699219-0.5449219-1.2148438-1.2148438-1.2148438c-0.6689453,0-1.2138672,0.5449219-1.2138672,1.2148438l0.0068359,17.3642578  c-0.0175781,0.1054688-0.0185547,0.2158203-0.0039062,0.3320312c0.0410156,0.3007812,0.1972656,0.5664062,0.4394531,0.75  c0.2226562,0.1679688,0.4853516,0.2431641,0.7724609,0.2265625c0.0576172,0.0039062,0.1220703,0.0029297,0.1933594-0.0029297  c0.6220703-0.0625,1.0791016-0.6191406,1.0205078-1.1914062v-4.0244141l1.1777344-1.0146484l5.1210938,5.7607422  c0.0566406,0.0839844,0.1230469,0.1591797,0.1894531,0.2158203c0.2080078,0.1835938,0.4697266,0.2832031,0.7441406,0.2832031  c0.0234375,0,0.0478516-0.0009766,0.0712891-0.0019531c0.2753906-0.0175781,0.5283203-0.1318359,0.7216797-0.3251953  c0.078125-0.0556641,0.1484375-0.1210938,0.2099609-0.1953125c0.1914062-0.2314453,0.2822266-0.5234375,0.2539062-0.8222656  s-0.1708984-0.5693359-0.3457031-0.7050781L120.1962891,41.6943054z M115.2318115,48.4754333v0.000061l-0.0003662,0.000061  L115.2318115,48.4754333z"></path>	<path class="st1" d="M104.2314453,38.0849304l2.3017578-0.0009766c0.6210938-0.0444336,1.2626953,0.0600586,1.8144531,0.2797852  c0.2919922,0.1411133,0.4882812,0.4179688,0.5332031,0.7905273c0.0576172,0.265625,0.1826172,0.515625,0.4003906,0.7607422  c0.2314453,0.2128906,0.53125,0.3193359,0.7939453,0.3007812c0.3330078,0.0253906,0.6660156-0.0966797,0.9355469-0.34375  c0.2539062-0.2626953,0.3671875-0.6337891,0.3085938-0.9506836c-0.0976562-1.0166016-0.6416016-1.9204102-1.5292969-2.5014648  c-1.0166016-0.5537109-2.1611328-0.8120117-3.2900391-0.7416992l-2.2158203,0.0029297  c-1.4697266-0.1586914-2.9755859,0.296875-4.1826172,1.3149414c-0.9404297,1.1484375-1.3818359,2.5947266-1.2470703,4.0253906  l0.0019531,3.0371094c-0.1416016,1.4833984,0.3007812,2.9345703,1.3085938,4.1503906  c1.0107422,0.8554688,2.3125,1.3261719,3.6308594,1.3261719c0.1484375,0,0.296875-0.0058594,0.4443359-0.0175781  l2.2294922-0.0009766c1.1542969,0.0751953,2.3046875-0.1855469,3.3603516-0.765625  c0.8427734-0.5673828,1.3857422-1.4736328,1.4833984-2.4453125c0.0654297-0.359375-0.0498047-0.7285156-0.3085938-0.9873047  c-0.2451172-0.2460938-0.5742188-0.3710938-0.8632812-0.3496094c-0.3076172-0.0244141-0.6279297,0.0869141-0.8925781,0.3330078  c-0.1855469,0.2041016-0.3134766,0.453125-0.3769531,0.7666016c-0.0361328,0.3232422-0.2324219,0.5996094-0.4892578,0.7255859  c-0.5957031,0.2333984-1.2226562,0.3310547-1.8828125,0.2949219l-2.3173828,0.0019531  c-0.8291016,0.0869141-1.6435547-0.1386719-2.3173828-0.6201172c-0.4853516-0.6708984-0.7050781-1.4902344-0.6162109-2.3642578  l-0.0029297-3.140625c-0.0908203-0.8173828,0.1279297-1.6269531,0.6181641-2.284668  C102.5322266,38.1923523,103.3564453,37.9809265,104.2314453,38.0849304z"></path>	<polygon class="st1" points="131.0576172,29.3158875 135.5681152,25.5811462 140.0703125,29.3153992 140.7089844,28.5458679   136.3519897,24.9320984 137.3857422,24.0761414 136.7470703,23.3056335 135.5680542,24.2818909 134.3916016,23.3061218   133.7529297,24.0756531 134.7841187,24.9309387 130.4189453,28.5453796  "></polygon>	<path class="st1" d="M135.3768311,23.3617859c0.1370239,0.039978,0.2826538,0.039978,0.4196167,0  c0.1352539-0.0545044,0.2501831-0.1495972,0.3289185-0.2722168c0.0780029-0.1173706,0.1176758-0.2561035,0.1134644-0.3969727  l-0.0339966-0.0340576c0.0001221-0.0076294,0.0001221-0.0152588,0-0.0228882  c-0.0063477-0.3883057-0.3262329-0.697998-0.7145996-0.6916504c-0.1408691-0.0042114-0.2796021,0.0354004-0.3969727,0.1134033  c-0.1226196,0.0787964-0.2177734,0.1937256-0.2722168,0.3289185c-0.0449219,0.1324463-0.0449219,0.2759399,0,0.4083252  C134.8685913,23.0817566,135.0906982,23.3084412,135.3768311,23.3617859z"></path></g></svg>