<svg xmlns="http://www.w3.org/2000/svg" width="50" height="50" viewBox="0 0 50 50" fill="none"><path fill-rule="evenodd" clip-rule="evenodd" d="M28.4 11.0002C30.1112 11.0002 30.5697 11.0178 30.8961 11.1064L30.8961 11.1064C31.9568 11.3944 32.8013 12.2392 33.0928 13.3411C33.1291 13.4784 33.1535 13.6375 33.1698 13.8904C32.7723 13.8891 32.362 13.8891 31.9391 13.8891L31.8 13.8891H21.6C20.4954 13.8891 19.6 14.7846 19.6 15.8891C19.6 16.9937 20.4954 17.8891 21.6 17.8891H31.8C34.2614 17.8891 35.9037 17.8935 37.1261 18.06C38.2884 18.2183 38.7684 18.4889 39.0829 18.8074C39.4008 19.1296 39.6728 19.6265 39.8307 20.8164C39.9959 22.0611 40 23.7311 40 26.2225V29.6669C40 32.1583 39.9959 33.8282 39.8307 35.073C39.6728 36.2628 39.4009 36.7598 39.0828 37.0819C38.7684 37.4005 38.2883 37.6711 37.1261 37.8294C35.9037 37.9959 34.2614 38.0002 31.8 38.0002H21.6C18.3372 38.0002 16.0939 37.9959 14.4085 37.7663C12.7833 37.545 11.9784 37.1483 11.4151 36.5775L11.415 36.5774C10.8481 36.0032 10.4517 35.1772 10.2316 33.5183C10.0041 31.8046 10 29.5257 10 26.2225V22.778C10 19.4747 10.0041 17.1959 10.2316 15.4822C10.4517 13.8233 10.8481 12.9973 11.415 12.423C11.9784 11.8522 12.7833 11.4555 14.4085 11.2342C16.0939 11.0046 18.3372 11.0002 21.6 11.0002H28.4ZM36.9598 12.3184C37.0972 12.8381 37.1564 13.4015 37.1816 14.0387C37.3472 14.056 37.5087 14.0752 37.666 14.0966C39.2813 14.3166 40.7502 14.8027 41.9296 15.9974C43.1054 17.1886 43.5804 18.6661 43.7959 20.2901C44.0001 21.8292 44.0001 23.7667 44 26.0859V26.2225V29.6669V29.8035C44.0001 32.1226 44.0001 34.0602 43.7959 35.5992C43.5804 37.2233 43.1054 38.7008 41.9296 39.8919C40.7502 41.0867 39.2813 41.5728 37.666 41.7928C36.1417 42.0004 34.2246 42.0003 31.9391 42.0002H31.8H21.6H21.4549C18.3728 42.0003 15.8556 42.0004 13.8686 41.7297C11.7903 41.4466 9.99659 40.8345 8.56829 39.3875C7.14355 37.9442 6.54411 36.1376 6.26635 34.0446C5.99989 32.0368 5.99994 29.4912 6 26.3647L6 26.2225V22.778L6 22.6358C5.99994 19.5093 5.99989 16.9637 6.26635 14.9559C6.54411 12.8629 7.14357 11.0563 8.5683 9.61295L8.56831 9.61294C9.99661 8.16598 11.7904 7.55383 13.8686 7.27075C15.8556 7.00012 18.3728 7.00018 21.4549 7.00024L21.6 7.00024H28.4L28.6564 7.00012C29.9842 6.99915 31.0312 6.99838 31.944 7.24614L31.944 7.24615C34.403 7.91368 36.3081 9.85422 36.9598 12.3183L36.9598 12.3184ZM34.3472 23.3606C31.8099 23.3606 29.7972 25.4373 29.7972 27.944C29.7972 30.4507 31.8099 32.5273 34.3472 32.5273C36.8845 32.5273 38.8972 30.4507 38.8972 27.944C38.8972 25.4373 36.8845 23.3606 34.3472 23.3606Z" fill="url(#paint0_linear_945_1032)"></path><defs><linearGradient id="paint0_linear_945_1032" x1="25" y1="7" x2="25" y2="42.0002" gradientUnits="userSpaceOnUse"><stop stop-color="#A964ED"></stop><stop offset="1" stop-color="#00A1FF"></stop></linearGradient></defs></svg>