<svg xmlns="http://www.w3.org/2000/svg" width="42" height="42" viewBox="0 0 42 42" fill="none"><path fill-rule="evenodd" clip-rule="evenodd" d="M5 0.363281C2.23858 0.363281 0 2.60185 0 5.36327V36.8311C0 39.5926 2.23857 41.8311 4.99999 41.8311H36.4678C39.2293 41.8311 41.4678 39.5926 41.4678 36.8311V5.36328C41.4678 2.60186 39.2293 0.363281 36.4679 0.363281H5ZM35 23.1168C34.9293 23.388 34.8655 23.662 34.8016 23.9362L34.8016 23.9362L34.8016 23.9363L34.8016 23.9363C34.6709 24.4974 34.54 25.0592 34.35 25.5999C32.6617 30.4256 29.3569 33.5178 24.4609 34.868C24.3427 34.902 24.2203 34.9276 24.0979 34.9489C24.0448 34.9578 23.9916 34.9644 23.9275 34.9724L23.9268 34.9725L23.9265 34.9725L23.9263 34.9725C23.8685 34.9797 23.8017 34.9879 23.7181 35C23.2622 33.8117 23.0596 32.5978 23.1989 31.3286C23.5113 28.509 25.0307 26.341 26.8878 24.3563C26.9839 24.2541 27.0851 24.1576 27.1859 24.0615C27.4128 23.8451 27.6374 23.6309 27.7953 23.3596C27.4242 23.4162 27.0532 23.4783 26.6819 23.5404L26.6817 23.5404C25.824 23.6838 24.9651 23.8275 24.1022 23.9048C22.8233 24.0198 21.6752 23.6364 20.6496 22.5248C20.7556 22.5313 20.8378 22.5316 20.9031 22.5318C21.0094 22.5322 21.0711 22.5325 21.1181 22.5589C22.9541 23.564 24.8661 23.2744 26.7781 22.8868C27.3057 22.7803 27.8248 22.6142 28.3355 22.4396C29.5764 22.0137 30.1462 21.017 30.3826 19.8159C30.5683 18.8874 30.1124 18.1591 29.3654 17.6778C28.7745 17.2988 28.116 17.0262 27.466 16.7578C26.9423 16.5452 26.4072 16.3647 25.8723 16.1842L25.8722 16.1842L25.8722 16.1842L25.8721 16.1842L25.8721 16.1842L25.872 16.1841C25.6786 16.1189 25.4852 16.0537 25.2924 15.9869C24.7395 15.7953 24.271 15.5397 23.8996 15.0158C23.3382 14.2193 22.4434 14.2449 21.5697 14.2875C21.059 14.3131 20.5441 14.3088 20.0376 14.2534C17.6656 13.9851 15.6481 14.8029 13.9472 16.3958C12.9384 17.3371 12.6092 18.6447 12.5374 19.9991C12.4108 22.3374 12.0774 24.6331 11.1742 26.8053C10.9171 27.4209 10.628 28.0232 10.3244 28.6555L10.3244 28.6555L10.3244 28.6556C10.1743 28.9682 10.0207 29.2881 9.86574 29.6206C9.78214 29.5194 9.71179 29.4382 9.65101 29.3681L9.65092 29.368C9.55831 29.2611 9.48793 29.1799 9.42678 29.0925C3.67819 20.7785 8.70082 8.86127 18.6279 7.24277C18.9321 7.193 19.2345 7.13964 19.5374 7.08618L19.5374 7.08617L19.5374 7.08617L19.5375 7.08616C19.7011 7.05729 19.8649 7.02838 20.0292 7H21.8989C22.0096 7.0154 22.1205 7.02963 22.2316 7.04387C22.4891 7.07691 22.7469 7.10997 23.0006 7.15759C28.7787 8.20535 32.6364 11.5062 34.4809 17.1497C34.6267 17.5969 34.7315 18.0572 34.8362 18.517L34.8363 18.517L34.8363 18.5171L34.8363 18.5171C34.8891 18.7492 34.942 18.9811 35 19.2111V23.1168ZM19.2187 20.6003C17.771 20.6003 16.6525 19.4801 16.6483 18.0192C16.644 16.537 17.7921 15.3487 19.2271 15.3487C20.6537 15.3487 21.8566 16.5626 21.8608 17.9937C21.8608 19.4375 20.6875 20.6003 19.2187 20.6003ZM20.7846 18.0277C20.7888 17.1716 20.1135 16.4646 19.2651 16.4433C18.4252 16.422 17.6528 17.1887 17.6612 18.0277C17.6697 18.854 18.4125 19.5909 19.2271 19.5824C20.0713 19.5738 20.7803 18.8668 20.7846 18.0277ZM28.01 20.4144C28.0877 20.3461 28.1655 20.2776 28.2461 20.217H28.2419V19.9146C28.1597 19.8567 28.0791 19.7886 27.9984 19.7204C27.818 19.5679 27.6369 19.4149 27.4357 19.3737C27.0052 19.2885 26.7519 19.6122 26.714 20.0424C26.6802 20.4385 27.0854 20.8942 27.4441 20.7877C27.653 20.7284 27.8312 20.5717 28.01 20.4144Z" fill="white"></path></svg>