<svg xmlns="http://www.w3.org/2000/svg" width="42" height="41" viewBox="0 0 42 41" fill="none"><path fill-rule="evenodd" clip-rule="evenodd" d="M5 0.363281C2.23858 0.363281 0 2.60186 0 5.36328V36C0 38.7614 2.23857 41 4.99999 41H36.4678C39.2293 41 41.4678 38.7614 41.4678 36V5.36328C41.4678 2.60186 39.2293 0.363281 36.4679 0.363281H5ZM8.08984 21.4769C8.08984 14.7395 13.7474 9.28242 20.7325 9.28242C27.7175 9.28242 33.3751 14.7395 33.3751 21.4769C33.3751 26.8578 29.7562 31.4307 24.7623 33.0465C24.1302 33.1684 23.8931 32.7873 23.8931 32.4672C23.8931 32.3296 23.8949 32.0915 23.8973 31.7744C23.9019 31.1432 23.9089 30.1994 23.9089 29.1137C23.9089 27.9705 23.5139 27.2388 23.0556 26.8578C25.8686 26.5529 28.8238 25.5164 28.8238 20.8367C28.8238 19.4953 28.3339 18.4131 27.5279 17.5594C27.6543 17.2546 28.0968 16.0046 27.4015 14.3279C27.4015 14.3279 26.3427 13.9926 23.9247 15.5778C22.9133 15.3035 21.8387 15.1663 20.7641 15.1663C19.6895 15.1663 18.6148 15.3035 17.6034 15.5778C15.1855 14.0078 14.1267 14.3279 14.1267 14.3279C13.4314 16.0046 13.8738 17.2546 14.0003 17.5594C13.1943 18.4131 12.7044 19.5106 12.7044 20.8367C12.7044 25.5011 15.6438 26.5529 18.4568 26.8578C18.0933 27.1626 17.7615 27.6961 17.6508 28.4888C16.9239 28.8089 15.1065 29.3272 13.9687 27.4827C13.7316 27.1169 13.0205 26.2176 12.0249 26.2328C10.966 26.248 11.5982 26.812 12.0407 27.0407C12.578 27.3303 13.1943 28.4126 13.3365 28.7632C13.5894 29.4491 14.4112 30.76 17.5876 30.196C17.5876 30.8624 17.5944 31.5029 17.599 31.948C17.6015 32.185 17.6034 32.3666 17.6034 32.4672C17.6034 32.7873 17.3664 33.1532 16.7342 33.0465C11.7088 31.4307 8.08984 26.873 8.08984 21.4769Z" fill="white"></path></svg>