<svg xmlns="http://www.w3.org/2000/svg" width="60" height="60" viewBox="0 0 60 60" fill="none"><rect width="60" height="60" rx="30" fill="url(#paint0_linear_887_463)"></rect><path d="M42.5144 19.163H31.1134V17.487C32.4093 17.0273 33.3402 15.7898 33.3402 14.3383C33.3402 12.4965 31.8418 10.998 30 10.998C28.1582 10.998 26.6598 12.4965 26.6598 14.3383C26.6598 15.7898 27.5907 17.0273 28.8866 17.487V19.163H17.4856L12 31.192V31.4339C12 34.8534 14.7819 37.6354 18.2015 37.6354C21.6211 37.6354 24.403 34.8534 24.403 31.4339V31.192L19.933 21.3898H28.8866V40.3176H23.5244L21.2976 46.998H38.7023L36.4755 40.3176H31.1134V21.3898H40.067L35.5969 31.192V31.4339C35.5969 34.8534 38.3789 37.6354 41.7984 37.6354C45.218 37.6354 48 34.8534 48 31.4338V31.1919L42.5144 19.163ZM30 13.2249C30.6139 13.2249 31.1134 13.7243 31.1134 14.3383C31.1134 14.9522 30.6139 15.4517 30 15.4517C29.3861 15.4517 28.8866 14.9522 28.8866 14.3383C28.8866 13.7243 29.3861 13.2249 30 13.2249ZM18.2015 35.4085C16.3962 35.4085 14.8692 34.1985 14.3865 32.5472H22.0165C21.5338 34.1985 20.0068 35.4085 18.2015 35.4085ZM21.5582 30.3204H14.8449L18.2016 22.9598L21.5582 30.3204ZM35.6129 44.7712H24.3871L25.1294 42.5444H34.8705L35.6129 44.7712ZM41.7985 22.9598L45.1552 30.3204H38.4418L41.7985 22.9598ZM41.7985 35.4085C39.9932 35.4085 38.4662 34.1985 37.9835 32.5472H45.6135C45.1308 34.1985 43.6037 35.4085 41.7985 35.4085Z" fill="white"></path><defs><linearGradient id="paint0_linear_887_463" x1="30" y1="0" x2="30" y2="60" gradientUnits="userSpaceOnUse"><stop stop-color="#A964ED"></stop><stop offset="1" stop-color="#00A1FF"></stop></linearGradient></defs></svg>