<svg xmlns="http://www.w3.org/2000/svg" width="227" height="97" viewBox="0 0 227 97" fill="none"><path d="M112.667 0C112.75 0.149481 112.816 0.249133 112.882 0.348786C114.261 2.72387 115.623 5.11556 117.001 7.49064C117.134 7.72316 117.134 7.88925 117.001 8.12177C109.145 21.5252 101.289 34.9452 93.4334 48.3486C92.4867 49.9763 91.5399 51.5874 90.5766 53.2151C90.095 54.0123 89.7794 54.8926 89.4804 55.7728C88.3676 59.0282 87.969 62.3832 88.2514 65.8046C88.6334 70.6046 90.2777 74.923 93.151 78.7762C94.2306 80.2378 95.4763 81.5499 96.8548 82.7292C99.8278 85.2703 103.216 87.0143 107.003 87.961C109.793 88.6585 112.6 88.8579 115.457 88.5921C120.107 88.1437 124.293 86.516 128.046 83.7257C129.458 82.6793 130.72 81.4835 131.883 80.1548C134.225 77.4475 135.902 74.3915 136.932 70.9534C137.862 67.8309 138.161 64.642 137.846 61.4033C137.597 58.6794 136.899 56.0718 135.786 53.5805C135.653 53.2649 135.487 52.9659 135.321 52.667C130.687 44.9272 126.037 37.204 121.403 29.4643C121.353 29.3812 121.303 29.3148 121.253 29.2317C121.104 29.2816 121.071 29.4144 121.004 29.5307C118.995 32.8027 116.985 36.0746 114.992 39.3632C114.842 39.6123 114.66 39.7452 114.377 39.795C111.072 40.3431 107.783 40.9078 104.478 41.4725C104.428 41.4891 104.362 41.4891 104.279 41.4393C109.909 32.0885 115.556 22.721 121.187 13.3702C121.336 13.4699 121.37 13.6027 121.436 13.7024C127.033 23.103 132.63 32.5037 138.211 41.921C138.576 42.5355 139.025 43.0836 139.44 43.6317C140.719 45.3092 141.832 47.0864 142.762 48.9798C143.077 49.6275 143.36 50.3085 143.675 50.9562C144.041 51.7369 144.273 52.5507 144.556 53.3479C144.838 54.1618 145.071 54.9756 145.27 55.8227C145.951 58.5465 146.266 61.3202 146.233 64.1271C146.183 69.4752 144.921 74.5077 142.446 79.2579C141.383 81.3008 140.121 83.1942 138.66 84.9714C137.43 86.4662 136.085 87.8281 134.607 89.0738C132.863 90.5686 131.003 91.8475 128.993 92.9437C126.435 94.3388 123.745 95.3852 120.905 96.0661C117.699 96.8468 114.444 97.1291 111.155 96.9464C107.634 96.7471 104.229 96.0163 100.941 94.7374C98.1171 93.6412 95.4763 92.163 93.0514 90.3527C91.1081 88.8911 89.3642 87.2302 87.7863 85.3866C85.4943 82.7126 83.6839 79.7229 82.3386 76.4676C81.2424 73.7935 80.495 71.0198 80.1296 68.1465C79.6978 64.7417 79.7642 61.3534 80.3621 57.9652C80.9268 54.7929 81.94 51.7867 83.3517 48.8967C83.9829 47.6012 84.7635 46.4054 85.4943 45.1763C88.351 40.4428 91.1912 35.7258 94.0313 30.9923C100.16 20.7778 106.305 10.5633 112.434 0.348786C112.517 0.232524 112.583 0.132872 112.667 0Z" fill="white"></path><path d="M93.1172 63.796C93.1172 52.7676 102.003 43.8652 113.031 43.8652C124.076 43.8652 132.945 52.7344 132.945 63.7794C132.945 74.8243 124.076 83.6935 113.031 83.6769C102.003 83.6935 93.1172 74.8077 93.1172 63.796ZM113.015 75.7378C119.625 75.7544 124.973 70.4395 124.99 63.8292C125.006 57.3351 119.841 51.8707 113.081 51.8541C106.438 51.8209 101.139 57.1026 101.089 63.7461C101.04 70.3565 106.388 75.7212 113.015 75.7378Z" fill="white"></path><path d="M226.42 32.3926H139.625L148.542 46.6602H212.152L226.42 32.3926Z" fill="white"></path><path d="M208.688 52.4121H151.023C151.023 52.4121 152.113 56.1772 152.51 59.8432C152.906 63.5091 152.51 66.6797 152.51 66.6797H194.421L208.688 52.4121Z" fill="white"></path><path d="M191.346 72.4219H151.615C151.615 72.4219 150.584 76.0879 149.237 79.2584C147.889 82.429 145.273 86.6895 145.273 86.6895H177.078L191.346 72.4219Z" fill="white"></path><path d="M0.0022583 32.3926H86.7969L77.8796 46.6602H14.2699L0.0022583 32.3926Z" fill="white"></path><path d="M17.7335 52.4121H75.3984C75.3984 52.4121 74.3086 56.1772 73.9122 59.8432C73.5159 63.5091 73.9122 66.6797 73.9122 66.6797H32.0011L17.7335 52.4121Z" fill="white"></path><path d="M35.0761 72.4219H74.8073C74.8073 72.4219 75.8378 76.0879 77.1852 79.2584C78.5326 82.429 81.1484 86.6895 81.1484 86.6895H49.3437L35.0761 72.4219Z" fill="white"></path></svg>