<svg xmlns="http://www.w3.org/2000/svg" width="60" height="60" viewBox="0 0 60 60" fill="none"><rect width="60" height="60" rx="30" fill="url(#paint0_linear_959_1387)"></rect><path d="M44.9999 26.3006V19.3992L30.5 11L16 19.3992V26.3006H17.4117V38.6566H16V46H45V38.6566H43.5883V26.3006H44.9999ZM27.4951 38.6566V26.3006H33.5049V38.6566H27.4951ZM18.0368 24.0976V21.1602H42.9632V24.0976H18.0368ZM39.9229 18.9572H21.0771L30.5 13.499L39.9229 18.9572ZM19.4485 26.3006H25.4583V38.6566H19.4485V26.3006ZM42.9632 43.797H18.0368V40.8596H42.9632V43.797H42.9632ZM41.5515 38.6566H35.5416V26.3006H41.5515V38.6566Z" fill="white"></path><defs><linearGradient id="paint0_linear_959_1387" x1="30" y1="0" x2="30" y2="60" gradientUnits="userSpaceOnUse"><stop stop-color="#A964ED"></stop><stop offset="1" stop-color="#00A1FF"></stop></linearGradient></defs></svg>