<svg xmlns="http://www.w3.org/2000/svg" width="42" height="42" viewBox="0 0 42 42" fill="none"><path fill-rule="evenodd" clip-rule="evenodd" d="M5.07422 0.363281C2.3128 0.363281 0.0742188 2.60185 0.0742188 5.36327V36.8311C0.0742188 39.5926 2.31279 41.8311 5.07421 41.8311H36.5421C39.3035 41.8311 41.5421 39.5926 41.5421 36.8311V5.36328C41.5421 2.60186 39.3035 0.363281 36.5421 0.363281H5.07422ZM29.1975 30.9646L32.9481 13.392C33.0436 13.1249 33.0692 12.8381 33.0223 12.5586C32.9755 12.279 32.8577 12.0159 32.6802 11.7941C32.5055 11.6347 32.2859 11.5322 32.0508 11.5004C31.8158 11.4687 31.5766 11.5091 31.3654 11.6164L9.32144 20.0602C8.93413 20.1769 8.58592 20.3957 8.31391 20.6935C8.23018 20.7819 8.17845 20.8955 8.1669 21.0164C8.15534 21.1373 8.18462 21.2585 8.2501 21.361C8.45519 21.6165 8.74454 21.7918 9.06704 21.8558L14.7059 23.608L27.7954 15.4178C28.1525 15.1814 28.4248 15.1305 28.6123 15.2651C28.7315 15.3491 28.6977 15.4757 28.5107 15.6448L17.919 25.1549L17.511 30.9354C17.7303 30.9237 17.9451 30.8683 18.1424 30.7724C18.3397 30.6765 18.5156 30.5421 18.6596 30.3772L21.416 27.7406L27.1312 31.925C28.2199 32.5335 28.9087 32.2126 29.1975 30.9621V30.9646Z" fill="white"></path></svg>