<svg xmlns="http://www.w3.org/2000/svg" width="42" height="42" viewBox="0 0 42 42" fill="none"><path fill-rule="evenodd" clip-rule="evenodd" d="M5 0C2.23858 0 0 2.23857 0 4.99999V36.4678C0 39.2293 2.23857 41.4678 4.99999 41.4678H36.4678C39.2293 41.4678 41.4678 39.2293 41.4678 36.4679V5C41.4678 2.23858 39.2293 0 36.4679 0H5ZM13.6239 26.494C12.2654 27.949 10.9087 29.402 9.552 30.8548V30.8559C9.56575 30.8771 9.5795 30.8985 9.59324 30.92C9.60697 30.9414 9.62069 30.9628 9.63442 30.984C9.74947 30.984 9.8652 30.988 9.98093 30.992C10.251 31.0013 10.5211 31.0107 10.783 30.9692C11.0683 30.9237 11.4043 30.8146 11.5934 30.6156C12.8116 29.3362 14.0151 28.042 15.2188 26.7477C15.6595 26.2738 16.1001 25.8 16.5416 25.3268C17.0716 24.7588 17.6036 24.1922 18.1436 23.6171C18.4076 23.3358 18.6736 23.0525 18.9422 22.766C18.9935 22.8288 19.0416 22.8864 19.087 22.9409C19.181 23.0535 19.2637 23.1527 19.3406 23.2561C19.753 23.8097 20.166 24.3629 20.5789 24.9162C21.9476 26.7498 23.3163 28.5835 24.667 30.4303C24.9724 30.8474 25.2862 31.0041 25.8008 30.9946C27.0041 30.971 28.2079 30.9746 29.4116 30.9783C29.9338 30.9799 30.4561 30.9815 30.9783 30.9808C31.0634 30.9801 31.1481 30.9708 31.2611 30.9583C31.3248 30.9513 31.3975 30.9433 31.4844 30.9353L29.3236 28.0393C27.0458 24.9863 24.7918 21.9654 22.5348 18.9402C23.9639 17.4043 25.3809 15.8817 26.8065 14.3498C28.1361 12.9212 29.4731 11.4845 30.8345 10.0214C30.6838 10.0214 30.5519 10.0247 30.4328 10.0277C30.2022 10.0335 30.0197 10.0381 29.8413 10.0151C29.2454 9.93778 28.8386 10.1611 28.4318 10.6111C27.1121 12.0695 25.7669 13.5051 24.422 14.9404C24.0322 15.3564 23.6424 15.7724 23.2533 16.1889C22.9261 16.5395 22.5944 16.886 22.2565 17.2391C22.0771 17.4265 21.8959 17.6158 21.7127 17.8085C21.6678 17.7516 21.6269 17.7002 21.5887 17.6522C21.5127 17.5568 21.4478 17.4753 21.3851 17.3914C21.1557 17.0848 20.9262 16.7783 20.6967 16.4717C19.1941 14.4643 17.6914 12.4567 16.1982 10.4427C15.9805 10.1495 15.7576 10.0076 15.374 10.0119C14.1084 10.0268 12.8429 10.0254 11.5773 10.0241C11.0466 10.0235 10.5159 10.0229 9.98522 10.0235C9.89454 10.0235 9.80387 10.0335 9.69322 10.0457C9.63108 10.0525 9.56265 10.0601 9.48438 10.0669C10.3508 11.2287 11.2118 12.3832 12.0698 13.5336C14.0976 16.2526 16.1085 18.9489 18.1339 21.664C16.6267 23.2779 15.1242 24.8871 13.6239 26.494ZM12.363 11.6053C12.3236 11.5461 12.2788 11.4788 12.2253 11.3997H12.2263C12.4922 11.3997 12.7501 11.3983 13.0021 11.397C13.7096 11.3932 14.3704 11.3896 15.0295 11.4177C15.2071 11.4251 15.4184 11.6273 15.5431 11.7935C17.7435 14.7223 19.9372 17.6562 22.1311 20.5904C22.5541 21.1561 22.9771 21.7218 23.4001 22.2875C24.2391 23.4091 25.0783 24.5307 25.9175 25.6523C26.7568 26.7739 27.596 27.8955 28.435 29.0171C28.5136 29.1231 28.5891 29.2311 28.6858 29.3694C28.7281 29.4299 28.7745 29.4963 28.827 29.5707C28.5704 29.5707 28.3192 29.5719 28.0719 29.573C27.3314 29.5763 26.6268 29.5795 25.9234 29.5517C25.768 29.5464 25.5961 29.3167 25.4757 29.1559L25.4732 29.1526C22.7687 25.5432 20.0683 21.9317 17.3675 18.3198C16.7129 17.4444 16.0583 16.5689 15.4036 15.6934C15.1186 15.3124 14.8337 14.9314 14.5488 14.5505C13.8839 13.6615 13.2192 12.7728 12.5549 11.8835C12.4945 11.8028 12.4386 11.7189 12.363 11.6053Z" fill="white"></path></svg>