<svg xmlns="http://www.w3.org/2000/svg" width="50" height="50" viewBox="0 0 50 50" fill="none"><path fill-rule="evenodd" clip-rule="evenodd" d="M24.541 7.10948C14.9106 7.10948 7.10362 14.9165 7.10362 24.5468C7.10362 34.1772 14.9106 41.9842 24.541 41.9842C34.1714 41.9842 41.9784 34.1772 41.9784 24.5468C41.9784 14.9165 34.1714 7.10948 24.541 7.10948ZM2 24.5468C2 12.0978 12.0919 2.00586 24.541 2.00586C36.99 2.00586 47.082 12.0978 47.082 24.5468C47.082 36.9959 36.99 47.0878 24.541 47.0878C12.0919 47.0878 2 36.9959 2 24.5468ZM24.541 12.0004C25.9503 12.0004 27.0928 13.1429 27.0928 14.5523V22.7076L31.3447 24.1249C32.6817 24.5706 33.4043 26.0157 32.9586 27.3527C32.5129 28.6897 31.0678 29.4123 29.7308 28.9666L23.734 26.9677C22.692 26.6204 21.9892 25.6452 21.9892 24.5468V14.5523C21.9892 13.1429 23.1317 12.0004 24.541 12.0004Z" fill="url(#paint0_linear_1313_18996)"></path><defs><linearGradient id="paint0_linear_1313_18996" x1="24.541" y1="2.00586" x2="24.541" y2="47.0878" gradientUnits="userSpaceOnUse"><stop stop-color="#A964ED"></stop><stop offset="1" stop-color="#00A1FF"></stop></linearGradient></defs></svg>