<svg xmlns="http://www.w3.org/2000/svg" width="87" height="87" viewBox="0 0 87 87" fill="none"><path d="M51.6836 76.9996V68.5996H55.1036C55.5636 68.5996 55.9796 68.7156 56.3516 68.9476C56.7236 69.1796 57.0176 69.4916 57.2336 69.8836C57.4536 70.2716 57.5636 70.6996 57.5636 71.1676C57.5636 71.5276 57.5036 71.8636 57.3836 72.1756C57.2636 72.4836 57.0916 72.7576 56.8676 72.9976C56.6476 73.2336 56.3876 73.4236 56.0876 73.5676L58.0796 76.9996H56.0036L54.1076 73.7356H53.4836V76.9996H51.6836ZM53.4836 71.9356H54.8876C55.0476 71.9356 55.1936 71.8956 55.3256 71.8156C55.4576 71.7316 55.5636 71.6216 55.6436 71.4856C55.7236 71.3496 55.7636 71.1996 55.7636 71.0356C55.7636 70.8716 55.7236 70.7216 55.6436 70.5856C55.5636 70.4496 55.4576 70.3416 55.3256 70.2616C55.1936 70.1776 55.0476 70.1356 54.8876 70.1356H53.4836V71.9356Z" fill="white"></path><path d="M45.0156 76.9996V68.5996H50.3676V70.3996H46.8156V71.5996H49.5516V73.3996H46.8156V75.1996H50.3676V76.9996H45.0156Z" fill="white"></path><path d="M40.5045 77.1554C40.0325 77.1554 39.5805 77.0814 39.1485 76.9334C38.7165 76.7814 38.3385 76.5654 38.0145 76.2854C37.6905 76.0014 37.4565 75.6634 37.3125 75.2714L39.0045 74.6474C39.0445 74.7634 39.1325 74.8754 39.2685 74.9834C39.4085 75.0914 39.5845 75.1814 39.7965 75.2534C40.0085 75.3214 40.2445 75.3554 40.5045 75.3554C40.7445 75.3554 40.9705 75.3214 41.1825 75.2534C41.3945 75.1814 41.5665 75.0834 41.6985 74.9594C41.8305 74.8354 41.8965 74.6914 41.8965 74.5274C41.8965 74.3594 41.8265 74.2214 41.6865 74.1134C41.5505 74.0014 41.3745 73.9134 41.1585 73.8494C40.9465 73.7814 40.7285 73.7314 40.5045 73.6994C39.8965 73.6114 39.3505 73.4674 38.8665 73.2674C38.3865 73.0634 38.0065 72.7834 37.7265 72.4274C37.4505 72.0714 37.3125 71.6194 37.3125 71.0714C37.3125 70.5474 37.4605 70.0894 37.7565 69.6974C38.0525 69.3014 38.4425 68.9934 38.9265 68.7734C39.4145 68.5534 39.9405 68.4434 40.5045 68.4434C40.9765 68.4434 41.4285 68.5194 41.8605 68.6714C42.2965 68.8194 42.6765 69.0354 43.0005 69.3194C43.3245 69.6034 43.5565 69.9434 43.6965 70.3394L42.0045 70.9514C41.9645 70.8354 41.8745 70.7254 41.7345 70.6214C41.5985 70.5134 41.4245 70.4254 41.2125 70.3574C41.0005 70.2894 40.7645 70.2554 40.5045 70.2554C40.2725 70.2514 40.0505 70.2854 39.8385 70.3574C39.6265 70.4294 39.4525 70.5274 39.3165 70.6514C39.1805 70.7754 39.1125 70.9154 39.1125 71.0714C39.1125 71.2874 39.1765 71.4494 39.3045 71.5574C39.4325 71.6614 39.6005 71.7354 39.8085 71.7794C40.0205 71.8234 40.2525 71.8634 40.5045 71.8994C41.0805 71.9834 41.6105 72.1334 42.0945 72.3494C42.5785 72.5654 42.9665 72.8534 43.2585 73.2134C43.5505 73.5734 43.6965 74.0114 43.6965 74.5274C43.6965 75.0514 43.5485 75.5114 43.2525 75.9074C42.9605 76.2994 42.5725 76.6054 42.0885 76.8254C41.6045 77.0454 41.0765 77.1554 40.5045 77.1554Z" fill="white"></path><path d="M32.5802 77.1556C31.9082 77.1556 31.3142 76.9916 30.7982 76.6636C30.2862 76.3356 29.8842 75.8956 29.5922 75.3436C29.3042 74.7876 29.1602 74.1716 29.1602 73.4956V68.5996H30.9602V73.4956C30.9602 73.8356 31.0242 74.1476 31.1522 74.4316C31.2802 74.7116 31.4642 74.9356 31.7042 75.1036C31.9482 75.2716 32.2402 75.3556 32.5802 75.3556C32.9242 75.3556 33.2162 75.2736 33.4562 75.1096C33.6962 74.9416 33.8782 74.7176 34.0022 74.4376C34.1262 74.1536 34.1882 73.8396 34.1882 73.4956V68.5996H35.9882V73.4956C35.9882 74.0036 35.9062 74.4796 35.7422 74.9236C35.5782 75.3636 35.3442 75.7516 35.0402 76.0876C34.7362 76.4236 34.3762 76.6856 33.9602 76.8736C33.5442 77.0616 33.0842 77.1556 32.5802 77.1556Z" fill="white"></path><path d="M20.009 55.5633C20.1258 54.6918 20.2156 53.8113 20.3684 52.9488C21.5453 46.6148 24.8516 41.6645 30.0984 37.9359C33.7281 41.377 38.0047 43.1918 43 43.1828C47.9773 43.1828 52.2449 41.3859 55.9105 37.918C56.6383 38.493 57.402 39.041 58.1027 39.6609C62.523 43.5871 65.1285 48.4836 65.8383 54.3684C65.8832 54.7637 65.9461 55.168 66 55.5633C66 56.0395 66 56.5246 66 57.0008C50.6637 57.0008 35.3363 57.0008 20 57.0008C20.009 56.5246 20.009 56.0395 20.009 55.5633Z" fill="white"></path><path d="M44.0872 11C44.9946 11.1797 45.92 11.2965 46.8005 11.548C52.1911 13.0484 56.1802 17.8191 56.7372 23.3984C57.5098 31.134 51.8317 37.9262 44.0602 38.5641C37.0614 39.148 30.6196 34.1617 29.4337 27.2348C28.1579 19.8316 32.7848 12.9316 40.1251 11.3055C40.718 11.1707 41.329 11.0988 41.9309 11C42.6497 11 43.3684 11 44.0872 11Z" fill="white"></path></svg>