<svg xmlns="http://www.w3.org/2000/svg" width="95" height="95" viewBox="0 0 95 95" fill="none"><path d="M21.1307 54.3384L25.4727 58.6797L59.1378 25.0098L54.7959 20.6684L21.1307 54.3384Z" fill="white"></path><path d="M61.3436 14.1232L56.4961 18.9707L60.8374 23.312L65.6849 18.4645L61.3436 14.1232Z" fill="white"></path><path d="M43.8922 20.3136L45.6284 17.1388L48.8038 15.4019L45.6284 13.6656L43.8922 10.4902L42.1553 13.6656L38.9805 15.4019L42.1553 17.1388L43.8922 20.3136Z" fill="white"></path><path d="M51.8745 10.2848L52.96 8.30043L54.9449 7.21434L52.96 6.12947L51.8745 4.14453L50.789 6.12947L48.8047 7.21434L50.789 8.30043L51.8745 10.2848Z" fill="white"></path><path d="M71.9537 25.8846L70.2893 22.8418L68.6248 25.8846L65.582 27.549L68.6248 29.2129L70.2893 32.2563L71.9537 29.2129L74.9965 27.549L71.9537 25.8846Z" fill="white"></path><path d="M57 90.9996V82.5996H59.784C60.364 82.5996 60.906 82.7096 61.41 82.9296C61.918 83.1456 62.364 83.4476 62.748 83.8356C63.136 84.2196 63.438 84.6656 63.654 85.1736C63.874 85.6776 63.984 86.2196 63.984 86.7996C63.984 87.3796 63.874 87.9236 63.654 88.4316C63.438 88.9356 63.136 89.3816 62.748 89.7696C62.364 90.1536 61.918 90.4556 61.41 90.6756C60.906 90.8916 60.364 90.9996 59.784 90.9996H57ZM58.8 89.1996H59.784C60.108 89.1996 60.414 89.1376 60.702 89.0136C60.99 88.8896 61.246 88.7176 61.47 88.4976C61.694 88.2776 61.868 88.0236 61.992 87.7356C62.12 87.4436 62.184 87.1316 62.184 86.7996C62.184 86.4676 62.12 86.1576 61.992 85.8696C61.868 85.5816 61.694 85.3276 61.47 85.1076C61.25 84.8836 60.996 84.7096 60.708 84.5856C60.42 84.4616 60.112 84.3996 59.784 84.3996H58.8V89.1996Z" fill="white"></path><path d="M50.5781 90.9996V82.5996H52.3781V89.1996H55.6781V90.9996H50.5781Z" fill="white"></path><path d="M43.9102 90.9996V82.5996H49.2622V84.3996H45.7102V85.5996H48.4462V87.3996H45.7102V89.1996H49.2622V90.9996H43.9102Z" fill="white"></path><path d="M40.4922 90.9996V82.5996H42.2922V90.9996H40.4922Z" fill="white"></path><path d="M37.5236 82.5996H39.6476L36.7316 87.2196V90.9996H34.9316V87.2196L32.0156 82.5996H34.1396L35.8316 85.2636L37.5236 82.5996Z" fill="white"></path><path d="M72.3773 70.5996V72.3996H69.9773V78.9996H68.1773V72.3996H65.7773V70.5996H72.3773Z" fill="white"></path><path d="M57.7539 78.9996V70.5996H59.6979L62.7699 75.7476V70.5996H64.5699V78.9996H62.6259L59.5539 73.8516V78.9996H57.7539Z" fill="white"></path><path d="M52.597 79.1554C52.029 79.1554 51.495 79.0434 50.995 78.8194C50.495 78.5914 50.055 78.2774 49.675 77.8774C49.295 77.4774 48.997 77.0154 48.781 76.4914C48.565 75.9634 48.457 75.3994 48.457 74.7994C48.457 74.1994 48.565 73.6374 48.781 73.1134C48.997 72.5854 49.295 72.1214 49.675 71.7214C50.055 71.3214 50.495 71.0094 50.995 70.7854C51.495 70.5574 52.029 70.4434 52.597 70.4434C53.169 70.4434 53.705 70.5574 54.205 70.7854C54.705 71.0094 55.145 71.3214 55.525 71.7214C55.905 72.1214 56.201 72.5854 56.413 73.1134C56.629 73.6374 56.737 74.1994 56.737 74.7994C56.737 75.3994 56.629 75.9634 56.413 76.4914C56.201 77.0154 55.905 77.4774 55.525 77.8774C55.145 78.2774 54.705 78.5914 54.205 78.8194C53.705 79.0434 53.169 79.1554 52.597 79.1554ZM52.597 77.3554C52.917 77.3554 53.217 77.2894 53.497 77.1574C53.781 77.0214 54.031 76.8374 54.247 76.6054C54.463 76.3694 54.631 76.0974 54.751 75.7894C54.875 75.4814 54.937 75.1514 54.937 74.7994C54.937 74.4474 54.875 74.1174 54.751 73.8094C54.631 73.5014 54.463 73.2314 54.247 72.9994C54.031 72.7634 53.781 72.5794 53.497 72.4474C53.217 72.3114 52.917 72.2434 52.597 72.2434C52.277 72.2434 51.975 72.3114 51.691 72.4474C51.411 72.5794 51.163 72.7634 50.947 72.9994C50.731 73.2314 50.561 73.5014 50.437 73.8094C50.317 74.1174 50.257 74.4474 50.257 74.7994C50.257 75.1514 50.317 75.4814 50.437 75.7894C50.561 76.0974 50.731 76.3694 50.947 76.6054C51.163 76.8374 51.411 77.0214 51.691 77.1574C51.975 77.2894 52.277 77.3554 52.597 77.3554Z" fill="white"></path><path d="M41.582 78.9996V70.5996H45.002C45.462 70.5996 45.878 70.7156 46.25 70.9476C46.622 71.1796 46.916 71.4916 47.132 71.8836C47.352 72.2716 47.462 72.6996 47.462 73.1676C47.462 73.5276 47.402 73.8636 47.282 74.1756C47.162 74.4836 46.99 74.7576 46.766 74.9976C46.546 75.2336 46.286 75.4236 45.986 75.5676L47.978 78.9996H45.902L44.006 75.7356H43.382V78.9996H41.582ZM43.382 73.9356H44.786C44.946 73.9356 45.092 73.8956 45.224 73.8156C45.356 73.7316 45.462 73.6216 45.542 73.4856C45.622 73.3496 45.662 73.1996 45.662 73.0356C45.662 72.8716 45.622 72.7216 45.542 72.5856C45.462 72.4496 45.356 72.3416 45.224 72.2616C45.092 72.1776 44.946 72.1356 44.786 72.1356H43.382V73.9356Z" fill="white"></path><path d="M35.7461 78.9996V70.5996H40.7381V72.3996H37.5461V73.5996H40.1621V75.3996H37.5461V78.9996H35.7461Z" fill="white"></path><path d="M29.0781 78.9996V70.5996H32.2461C32.7061 70.5996 33.1221 70.7176 33.4941 70.9536C33.8701 71.1856 34.1681 71.4976 34.3881 71.8896C34.6081 72.2776 34.7181 72.7036 34.7181 73.1676C34.7181 73.6396 34.6041 74.0696 34.3761 74.4576C34.1521 74.8456 33.8521 75.1556 33.4761 75.3876C33.1001 75.6196 32.6901 75.7356 32.2461 75.7356H30.8781V78.9996H29.0781ZM30.8781 73.9356H32.0421C32.2021 73.9356 32.3481 73.8956 32.4801 73.8156C32.6121 73.7316 32.7181 73.6216 32.7981 73.4856C32.8781 73.3496 32.9181 73.1996 32.9181 73.0356C32.9181 72.8716 32.8781 72.7216 32.7981 72.5856C32.7181 72.4496 32.6121 72.3416 32.4801 72.2616C32.3481 72.1776 32.2021 72.1356 32.0421 72.1356H30.8781V73.9356Z" fill="white"></path><path d="M24.4005 79.1556C23.7285 79.1556 23.1345 78.9916 22.6185 78.6636C22.1065 78.3356 21.7045 77.8956 21.4125 77.3436C21.1245 76.7876 20.9805 76.1716 20.9805 75.4956V70.5996H22.7805V75.4956C22.7805 75.8356 22.8445 76.1476 22.9725 76.4316C23.1005 76.7116 23.2845 76.9356 23.5245 77.1036C23.7685 77.2716 24.0605 77.3556 24.4005 77.3556C24.7445 77.3556 25.0365 77.2736 25.2765 77.1096C25.5165 76.9416 25.6985 76.7176 25.8225 76.4376C25.9465 76.1536 26.0085 75.8396 26.0085 75.4956V70.5996H27.8085V75.4956C27.8085 76.0036 27.7265 76.4796 27.5625 76.9236C27.3985 77.3636 27.1645 77.7516 26.8605 78.0876C26.5565 78.4236 26.1965 78.6856 25.7805 78.8736C25.3645 79.0616 24.9045 79.1556 24.4005 79.1556Z" fill="white"></path></svg>