<svg xmlns="http://www.w3.org/2000/svg" width="730" height="62" viewBox="0 0 730 62" fill="none"><path d="M729 54.5L729 25.0092C729 19.4792 724.52 14.9992 718.99 14.9992L17.7786 14.9992C12.2486 14.9992 7.76856 19.4792 7.76856 25.0092L7.76855 57.4824" stroke="white" stroke-width="2" stroke-miterlimit="10"></path><path d="M0.986818 48.9815L7.76685 55.7615L14.5469 48.9815L14.5469 54.7415L7.76685 61.5215L0.986817 54.7415L0.986818 48.9815Z" fill="white"></path><path d="M354.938 9.00156V0.601562H356.882L359.953 5.74956V0.601562H361.754V9.00156H359.81L356.737 3.85356V9.00156H354.938Z" fill="white"></path><path d="M348.27 9.00156V0.601562H353.622V2.40156H350.07V3.60156H352.806V5.40156H350.07V7.20156H353.622V9.00156H348.27Z" fill="white"></path><path d="M347.427 9.00156H345.075L342.927 5.96556L342.687 6.25356V9.00156H340.887V0.601562H342.687V3.45756L345.075 0.601562H347.427L344.103 4.56156L347.427 9.00156Z" fill="white"></path><path d="M335.73 9.15731C335.162 9.15731 334.628 9.04531 334.128 8.82131C333.628 8.59331 333.188 8.27931 332.808 7.87931C332.428 7.47931 332.13 7.01731 331.914 6.49331C331.698 5.96531 331.59 5.40131 331.59 4.80131C331.59 4.20131 331.698 3.63931 331.914 3.11531C332.13 2.58731 332.428 2.12331 332.808 1.72331C333.188 1.32331 333.628 1.01131 334.128 0.787313C334.628 0.559312 335.162 0.445312 335.73 0.445312C336.302 0.445312 336.838 0.559312 337.338 0.787313C337.838 1.01131 338.278 1.32331 338.658 1.72331C339.038 2.12331 339.334 2.58731 339.546 3.11531C339.762 3.63931 339.87 4.20131 339.87 4.80131C339.87 5.40131 339.762 5.96531 339.546 6.49331C339.334 7.01731 339.038 7.47931 338.658 7.87931C338.278 8.27931 337.838 8.59331 337.338 8.82131C336.838 9.04531 336.302 9.15731 335.73 9.15731ZM335.73 7.35731C336.05 7.35731 336.35 7.29131 336.63 7.15931C336.914 7.02331 337.164 6.83931 337.38 6.60731C337.596 6.37131 337.764 6.09931 337.884 5.79131C338.008 5.48331 338.07 5.15331 338.07 4.80131C338.07 4.44931 338.008 4.11931 337.884 3.81131C337.764 3.50331 337.596 3.23331 337.38 3.00131C337.164 2.76531 336.914 2.58131 336.63 2.44931C336.35 2.31331 336.05 2.24531 335.73 2.24531C335.41 2.24531 335.108 2.31331 334.824 2.44931C334.544 2.58131 334.296 2.76531 334.08 3.00131C333.864 3.23331 333.694 3.50331 333.57 3.81131C333.45 4.11931 333.39 4.44931 333.39 4.80131C333.39 5.15331 333.45 5.48331 333.57 5.79131C333.694 6.09931 333.864 6.37131 334.08 6.60731C334.296 6.83931 334.544 7.02331 334.824 7.15931C335.108 7.29131 335.41 7.35731 335.73 7.35731Z" fill="white"></path><path d="M331.112 0.601562V2.40156H328.712V9.00156H326.912V2.40156H324.512V0.601562H331.112Z" fill="white"></path><path d="M320.67 0.601562V2.40156H318.27V9.00156H316.47V2.40156H314.07V0.601562H320.67Z" fill="white"></path><path d="M309.455 9.15756C308.783 9.15756 308.189 8.99356 307.673 8.66556C307.161 8.33756 306.759 7.89756 306.467 7.34556C306.179 6.78956 306.035 6.17356 306.035 5.49756V0.601562H307.835V5.49756C307.835 5.83756 307.899 6.14956 308.027 6.43356C308.155 6.71356 308.339 6.93756 308.579 7.10556C308.823 7.27356 309.115 7.35756 309.455 7.35756C309.799 7.35756 310.091 7.27556 310.331 7.11156C310.571 6.94356 310.753 6.71956 310.877 6.43956C311.001 6.15556 311.063 5.84156 311.063 5.49756V0.601562H312.863V5.49756C312.863 6.00556 312.781 6.48156 312.617 6.92556C312.453 7.36556 312.219 7.75356 311.915 8.08956C311.611 8.42556 311.251 8.68756 310.835 8.87556C310.419 9.06356 309.959 9.15756 309.455 9.15756Z" fill="white"></path><path d="M299.191 9.00156V0.601562H302.359C302.819 0.601562 303.235 0.719563 303.607 0.955563C303.983 1.18756 304.281 1.49956 304.501 1.89156C304.721 2.27956 304.831 2.70556 304.831 3.16956C304.831 3.64156 304.717 4.07156 304.489 4.45956C304.265 4.84756 303.965 5.15756 303.589 5.38956C303.213 5.62156 302.803 5.73756 302.359 5.73756H300.991V9.00156H299.191ZM300.991 3.93756H302.155C302.315 3.93756 302.461 3.89756 302.593 3.81756C302.725 3.73356 302.831 3.62356 302.911 3.48756C302.991 3.35156 303.031 3.20156 303.031 3.03756C303.031 2.87356 302.991 2.72356 302.911 2.58756C302.831 2.45156 302.725 2.34356 302.593 2.26356C302.461 2.17956 302.315 2.13756 302.155 2.13756H300.991V3.93756Z" fill="white"></path><path d="M297.995 0.601562V2.40156H295.595V9.00156H293.795V2.40156H291.395V0.601562H297.995Z" fill="white"></path><path d="M286.779 9.15756C286.107 9.15756 285.513 8.99356 284.997 8.66556C284.485 8.33756 284.083 7.89756 283.791 7.34556C283.503 6.78956 283.359 6.17356 283.359 5.49756V0.601562H285.159V5.49756C285.159 5.83756 285.223 6.14956 285.351 6.43356C285.479 6.71356 285.663 6.93756 285.903 7.10556C286.147 7.27356 286.439 7.35756 286.779 7.35756C287.123 7.35756 287.415 7.27556 287.655 7.11156C287.895 6.94356 288.077 6.71956 288.201 6.43956C288.325 6.15556 288.387 5.84156 288.387 5.49756V0.601562H290.187V5.49756C290.187 6.00556 290.105 6.48156 289.941 6.92556C289.777 7.36556 289.543 7.75356 289.239 8.08956C288.935 8.42556 288.575 8.68756 288.159 8.87556C287.743 9.06356 287.283 9.15756 286.779 9.15756Z" fill="white"></path><path d="M278.144 9.15731C277.576 9.15731 277.042 9.04531 276.542 8.82131C276.042 8.59331 275.602 8.27931 275.222 7.87931C274.842 7.47931 274.544 7.01731 274.328 6.49331C274.112 5.96531 274.004 5.40131 274.004 4.80131C274.004 4.20131 274.112 3.63931 274.328 3.11531C274.544 2.58731 274.842 2.12331 275.222 1.72331C275.602 1.32331 276.042 1.01131 276.542 0.787313C277.042 0.559312 277.576 0.445312 278.144 0.445312C278.716 0.445312 279.252 0.559312 279.752 0.787313C280.252 1.01131 280.692 1.32331 281.072 1.72331C281.452 2.12331 281.748 2.58731 281.96 3.11531C282.176 3.63931 282.284 4.20131 282.284 4.80131C282.284 5.40131 282.176 5.96531 281.96 6.49331C281.748 7.01731 281.452 7.47931 281.072 7.87931C280.692 8.27931 280.252 8.59331 279.752 8.82131C279.252 9.04531 278.716 9.15731 278.144 9.15731ZM278.144 7.35731C278.464 7.35731 278.764 7.29131 279.044 7.15931C279.328 7.02331 279.578 6.83931 279.794 6.60731C280.01 6.37131 280.178 6.09931 280.298 5.79131C280.422 5.48331 280.484 5.15331 280.484 4.80131C280.484 4.44931 280.422 4.11931 280.298 3.81131C280.178 3.50331 280.01 3.23331 279.794 3.00131C279.578 2.76531 279.328 2.58131 279.044 2.44931C278.764 2.31331 278.464 2.24531 278.144 2.24531C277.824 2.24531 277.522 2.31331 277.238 2.44931C276.958 2.58131 276.71 2.76531 276.494 3.00131C276.278 3.23331 276.108 3.50331 275.984 3.81131C275.864 4.11931 275.804 4.44931 275.804 4.80131C275.804 5.15331 275.864 5.48331 275.984 5.79131C276.108 6.09931 276.278 6.37131 276.494 6.60731C276.71 6.83931 276.958 7.02331 277.238 7.15931C277.522 7.29131 277.824 7.35731 278.144 7.35731Z" fill="white"></path></svg>