<svg xmlns="http://www.w3.org/2000/svg" width="95" height="95" viewBox="0 0 95 95" fill="none"><path d="M37.776 48.6473C32.1224 42.9892 32.1217 33.8552 37.7851 28.1874C43.457 22.5111 52.5583 22.5033 58.2205 28.1699C63.8826 33.8364 63.8748 42.9449 58.1944 48.6127C52.5396 54.289 43.4212 54.2969 37.776 48.6473ZM54.1159 44.5481C57.519 41.1594 57.5408 35.6841 54.1605 32.2841C50.8399 28.9438 45.386 28.7949 41.9061 32.2605C38.4774 35.6578 38.4643 41.0905 41.8445 44.5245C45.2077 47.9416 50.7043 47.9454 54.1159 44.5481Z" fill="white"></path><path d="M63.9889 20.6836C59.5411 16.2354 54.3613 14.5892 48.0712 14.5892C41.7811 14.5892 35.7486 17.0882 31.3008 21.5364C26.853 25.9847 24.3542 32.0178 24.3542 38.3086C24.3542 42.5977 25.189 46.6501 27.3379 50.279C27.1152 50.5018 26.8444 50.7818 26.5575 51.0784C25.9292 51.728 25.2235 52.4576 24.7758 52.8414L23.3206 51.3861C23.2767 52.4827 22.945 54.869 22.625 57.1708C22.2653 59.7587 21.9204 62.2398 22.0162 62.6607L34.5071 50.1685C31.7481 46.9799 30.079 42.8222 30.079 38.2745C30.079 28.2313 38.2198 20.0896 48.262 20.0896C52.8092 20.0896 56.9665 21.7589 60.1547 24.5182L63.9889 20.6836Z" fill="white"></path><path d="M36.3478 52.0122C39.5388 54.7826 43.7046 56.4594 48.262 56.4594C58.3042 56.4594 66.445 48.3178 66.445 38.2745C66.445 33.7166 64.7683 29.5504 61.9982 26.359L74.3559 14C74.4517 14.4209 74.1068 16.902 73.7471 19.4899C73.4271 21.7917 73.0954 24.1781 73.0516 25.2746L71.5964 23.8193C71.1486 24.2031 70.443 24.9327 69.8146 25.5823C69.5277 25.879 69.257 26.1589 69.0342 26.3817C71.1831 30.0106 72.0179 34.063 72.0179 38.3521C72.0179 44.6429 69.5192 50.676 65.0714 55.1243C60.6236 59.5726 54.5911 62.0716 48.3009 62.0716C42.0108 62.0716 36.831 60.4254 32.3832 55.9771L36.3478 52.0122Z" fill="white"></path><path d="M58.6484 82.9996V74.5996H61.8164C62.2764 74.5996 62.6924 74.7176 63.0644 74.9536C63.4404 75.1856 63.7384 75.4976 63.9584 75.8896C64.1784 76.2776 64.2884 76.7036 64.2884 77.1676C64.2884 77.6396 64.1744 78.0696 63.9464 78.4576C63.7224 78.8456 63.4224 79.1556 63.0464 79.3876C62.6704 79.6196 62.2604 79.7356 61.8164 79.7356H60.4484V82.9996H58.6484ZM60.4484 77.9356H61.6124C61.7724 77.9356 61.9184 77.8956 62.0504 77.8156C62.1824 77.7316 62.2884 77.6216 62.3684 77.4856C62.4484 77.3496 62.4884 77.1996 62.4884 77.0356C62.4884 76.8716 62.4484 76.7216 62.3684 76.5856C62.2884 76.4496 62.1824 76.3416 62.0504 76.2616C61.9184 76.1776 61.7724 76.1356 61.6124 76.1356H60.4484V77.9356Z" fill="white"></path><path d="M52.6066 74.5996H54.6346L57.6826 82.9996H55.7746L55.2946 81.6796H51.9466L51.4666 82.9996H49.5586L52.6066 74.5996ZM52.6066 79.8796H54.6346L53.6146 77.0956L52.6066 79.8796Z" fill="white"></path><path d="M41.1988 82.9996L39.0508 74.5996H40.9108L42.2068 79.6876L43.5028 74.5996H45.1588L46.4548 79.6876L47.7508 74.5996H49.6108L47.4748 82.9996H45.4468L44.3308 78.6436L43.2268 82.9996H41.1988Z" fill="white"></path><path d="M35.024 83.1554C34.552 83.1554 34.1 83.0814 33.668 82.9334C33.236 82.7814 32.858 82.5654 32.534 82.2854C32.21 82.0014 31.976 81.6634 31.832 81.2714L33.524 80.6474C33.564 80.7634 33.652 80.8754 33.788 80.9834C33.928 81.0914 34.104 81.1814 34.316 81.2534C34.528 81.3214 34.764 81.3554 35.024 81.3554C35.264 81.3554 35.49 81.3214 35.702 81.2534C35.914 81.1814 36.086 81.0834 36.218 80.9594C36.35 80.8354 36.416 80.6914 36.416 80.5274C36.416 80.3594 36.346 80.2214 36.206 80.1134C36.07 80.0014 35.894 79.9134 35.678 79.8494C35.466 79.7814 35.248 79.7314 35.024 79.6994C34.416 79.6114 33.87 79.4674 33.386 79.2674C32.906 79.0634 32.526 78.7834 32.246 78.4274C31.97 78.0714 31.832 77.6194 31.832 77.0714C31.832 76.5474 31.98 76.0894 32.276 75.6974C32.572 75.3014 32.962 74.9934 33.446 74.7734C33.934 74.5534 34.46 74.4434 35.024 74.4434C35.496 74.4434 35.948 74.5194 36.38 74.6714C36.816 74.8194 37.196 75.0354 37.52 75.3194C37.844 75.6034 38.076 75.9434 38.216 76.3394L36.524 76.9514C36.484 76.8354 36.394 76.7254 36.254 76.6214C36.118 76.5134 35.944 76.4254 35.732 76.3574C35.52 76.2894 35.284 76.2554 35.024 76.2554C34.792 76.2514 34.57 76.2854 34.358 76.3574C34.146 76.4294 33.972 76.5274 33.836 76.6514C33.7 76.7754 33.632 76.9154 33.632 77.0714C33.632 77.2874 33.696 77.4494 33.824 77.5574C33.952 77.6614 34.12 77.7354 34.328 77.7794C34.54 77.8234 34.772 77.8634 35.024 77.8994C35.6 77.9834 36.13 78.1334 36.614 78.3494C37.098 78.5654 37.486 78.8534 37.778 79.2134C38.07 79.5734 38.216 80.0114 38.216 80.5274C38.216 81.0514 38.068 81.5114 37.772 81.9074C37.48 82.2994 37.092 82.6054 36.608 82.8254C36.124 83.0454 35.596 83.1554 35.024 83.1554Z" fill="white"></path></svg>