<svg xmlns="http://www.w3.org/2000/svg" width="981" height="48" viewBox="0 0 981 48" fill="none"><path d="M979.5 7.02344L979.5 36.5143C979.5 42.0443 975.02 46.5243 969.49 46.5243L16.7891 46.5243C11.2591 46.5243 6.77906 42.0443 6.77906 36.5143L6.77905 4.0411" stroke="white" stroke-width="2" stroke-miterlimit="10"></path><path d="M-0.00146375 12.542L6.77856 5.76196L13.5586 12.542L13.5586 6.78195L6.77856 0.00195372L-0.00146425 6.78195L-0.00146375 12.542Z" fill="white"></path><path d="M512.477 41.0016V32.6016H514.277V39.2016H517.577V41.0016H512.477Z" fill="white"></path><path d="M506.439 32.6016H508.467L511.515 41.0016H509.607L509.127 39.6816H505.779L505.299 41.0016H503.391L506.439 32.6016ZM506.439 37.8816H508.467L507.447 35.0976L506.439 37.8816Z" fill="white"></path><path d="M496.457 41.0016V32.6016H499.877C500.337 32.6016 500.753 32.7176 501.125 32.9496C501.497 33.1816 501.791 33.4936 502.007 33.8856C502.227 34.2736 502.337 34.7016 502.337 35.1696C502.337 35.5296 502.277 35.8656 502.157 36.1776C502.037 36.4856 501.865 36.7596 501.641 36.9996C501.421 37.2356 501.161 37.4256 500.861 37.5696L502.853 41.0016H500.777L498.881 37.7376H498.257V41.0016H496.457ZM498.257 35.9376H499.661C499.821 35.9376 499.967 35.8976 500.099 35.8176C500.231 35.7336 500.337 35.6236 500.417 35.4876C500.497 35.3516 500.537 35.2016 500.537 35.0376C500.537 34.8736 500.497 34.7236 500.417 34.5876C500.337 34.4516 500.231 34.3436 500.099 34.2636C499.967 34.1796 499.821 34.1376 499.661 34.1376H498.257V35.9376Z" fill="white"></path><path d="M489.789 41.0016V32.6016H495.141V34.4016H491.589V35.6016H494.325V37.4016H491.589V39.2016H495.141V41.0016H489.789Z" fill="white"></path><path d="M488.592 32.6016V34.4016H486.192V41.0016H484.392V34.4016H481.992V32.6016H488.592Z" fill="white"></path><path d="M477.153 32.6016H479.181L482.229 41.0016H480.321L479.841 39.6816H476.493L476.013 41.0016H474.105L477.153 32.6016ZM477.153 37.8816H479.181L478.161 35.0976L477.153 37.8816Z" fill="white"></path><path d="M468.227 41.0016V32.6016H470.027V39.2016H473.327V41.0016H468.227Z" fill="white"></path><path d="M461.805 41.0016V32.6016H463.605V39.2016H466.905V41.0016H461.805Z" fill="white"></path><path d="M456.648 41.1573C456.08 41.1573 455.546 41.0453 455.046 40.8213C454.546 40.5933 454.106 40.2793 453.726 39.8793C453.346 39.4793 453.048 39.0173 452.832 38.4933C452.616 37.9653 452.508 37.4013 452.508 36.8013C452.508 36.2013 452.616 35.6393 452.832 35.1153C453.048 34.5873 453.346 34.1233 453.726 33.7233C454.106 33.3233 454.546 33.0113 455.046 32.7873C455.546 32.5593 456.08 32.4453 456.648 32.4453C457.22 32.4453 457.756 32.5593 458.256 32.7873C458.756 33.0113 459.196 33.3233 459.576 33.7233C459.956 34.1233 460.252 34.5873 460.464 35.1153C460.68 35.6393 460.788 36.2013 460.788 36.8013C460.788 37.4013 460.68 37.9653 460.464 38.4933C460.252 39.0173 459.956 39.4793 459.576 39.8793C459.196 40.2793 458.756 40.5933 458.256 40.8213C457.756 41.0453 457.22 41.1573 456.648 41.1573ZM456.648 39.3573C456.968 39.3573 457.268 39.2913 457.548 39.1593C457.832 39.0233 458.082 38.8393 458.298 38.6073C458.514 38.3713 458.682 38.0993 458.802 37.7913C458.926 37.4833 458.988 37.1533 458.988 36.8013C458.988 36.4493 458.926 36.1193 458.802 35.8113C458.682 35.5033 458.514 35.2333 458.298 35.0013C458.082 34.7653 457.832 34.5813 457.548 34.4493C457.268 34.3133 456.968 34.2453 456.648 34.2453C456.328 34.2453 456.026 34.3133 455.742 34.4493C455.462 34.5813 455.214 34.7653 454.998 35.0013C454.782 35.2333 454.612 35.5033 454.488 35.8113C454.368 36.1193 454.308 36.4493 454.308 36.8013C454.308 37.1533 454.368 37.4833 454.488 37.7913C454.612 38.0993 454.782 38.3713 454.998 38.6073C455.214 38.8393 455.462 39.0233 455.742 39.1593C456.026 39.2913 456.328 39.3573 456.648 39.3573Z" fill="white"></path><path d="M448.433 41.1573C447.865 41.1573 447.331 41.0453 446.831 40.8213C446.331 40.5933 445.891 40.2793 445.511 39.8793C445.135 39.4793 444.839 39.0173 444.623 38.4933C444.411 37.9653 444.305 37.4013 444.305 36.8013C444.305 36.1973 444.411 35.6333 444.623 35.1093C444.839 34.5813 445.135 34.1193 445.511 33.7233C445.891 33.3233 446.331 33.0113 446.831 32.7873C447.331 32.5593 447.865 32.4453 448.433 32.4453C449.113 32.4453 449.739 32.6033 450.311 32.9193C450.883 33.2313 451.357 33.6493 451.733 34.1733L450.125 35.0373C449.917 34.7973 449.667 34.6053 449.375 34.4613C449.083 34.3173 448.769 34.2453 448.433 34.2453C448.113 34.2453 447.811 34.3113 447.527 34.4433C447.247 34.5753 446.999 34.7593 446.783 34.9953C446.571 35.2273 446.405 35.4973 446.285 35.8053C446.165 36.1133 446.105 36.4453 446.105 36.8013C446.105 37.1533 446.165 37.4833 446.285 37.7913C446.405 38.0993 446.571 38.3713 446.783 38.6073C446.999 38.8393 447.247 39.0233 447.527 39.1593C447.811 39.2913 448.113 39.3573 448.433 39.3573C448.769 39.3573 449.083 39.2853 449.375 39.1413C449.667 38.9933 449.917 38.7973 450.125 38.5533L451.733 39.4293C451.357 39.9493 450.883 40.3673 450.311 40.6833C449.739 40.9993 449.113 41.1573 448.433 41.1573Z" fill="white"></path></svg>